<svg width="1920" height="200" viewBox="0 0 1920 200" fill="none" xmlns="http://www.w3.org/2000/svg">
<rect width="1920" height="200" fill="#123456"/>
<path opacity="0.3" d="M1182.33 100.155V200H1211.71H1252.95H1309.33V66.3032H1299.66V41H1262.93V66.3032H1252.95V142.213H1240.06V117.594H1224.6V142.213H1211.71V100.155H1182.33Z" fill="#517BE4"/>
<path opacity="0.4" d="M1289.83 74.1133H1303.25V82.3063H1289.83V74.1133Z" fill="white"/>
<path opacity="0.4" d="M1273.21 82.3062H1259.78V74.1132H1273.21V82.3062Z" fill="white"/>
<path opacity="0.4" d="M1289.83 90.1577H1303.25V98.3507H1289.83V90.1577Z" fill="white"/>
<path opacity="0.4" d="M1273.21 98.3511H1259.78V90.1581H1273.21V98.3511Z" fill="white"/>
<path opacity="0.4" d="M1289.83 106.203H1303.25V114.396H1289.83V106.203Z" fill="white"/>
<path opacity="0.4" d="M1273.21 114.396H1259.78V106.203H1273.21V114.396Z" fill="white"/>
<path opacity="0.4" d="M1289.83 122.247H1303.25V130.44H1289.83V122.247Z" fill="white"/>
<path opacity="0.4" d="M1273.21 130.44H1259.78V122.247H1273.21V130.44Z" fill="white"/>
<path opacity="0.4" d="M1289.83 138.292H1303.25V146.484H1289.83V138.292Z" fill="white"/>
<path opacity="0.4" d="M1273.21 146.485H1259.78V138.292H1273.21V146.485Z" fill="white"/>
<path opacity="0.4" d="M1289.83 154.336H1303.25V162.529H1289.83V154.336Z" fill="white"/>
<path opacity="0.4" d="M1273.21 162.529H1259.78V154.336H1273.21V162.529Z" fill="white"/>
<path opacity="0.4" d="M1289.83 170.381H1303.25V178.574H1289.83V170.381Z" fill="white"/>
<path opacity="0.4" d="M1273.21 178.574H1259.78V170.381H1273.21V178.574Z" fill="white"/>
<path opacity="0.4" d="M1217.28 150.24H1248.6V154.336H1217.28V150.24Z" fill="white"/>
<path opacity="0.4" d="M1217.28 156.384H1248.6V160.481H1217.28V156.384Z" fill="white"/>
<path opacity="0.4" d="M1217.28 162.529H1248.6V166.626H1217.28V162.529Z" fill="white"/>
<path opacity="0.4" d="M1217.28 168.674H1248.6V172.77H1217.28V168.674Z" fill="white"/>
<path opacity="0.4" d="M1217.28 174.818H1248.6V178.915H1217.28V174.818Z" fill="white"/>
<path opacity="0.4" d="M1217.28 180.963H1248.6V185.06H1217.28V180.963Z" fill="white"/>
<path opacity="0.4" d="M1188.33 106H1203.33V118H1188.33V106Z" fill="white"/>
<path opacity="0.4" d="M1188.33 125H1203.33V137H1188.33V125Z" fill="white"/>
<path opacity="0.4" d="M1188.33 144H1203.33V156H1188.33V144Z" fill="white"/>
<path opacity="0.4" d="M1188.33 163H1203.33V175H1188.33V163Z" fill="white"/>
<path d="M1182.25 136.649C1182.5 136.841 1182.63 136.946 1182.63 136.946C1182.5 136.868 1182.37 136.768 1182.25 136.649Z" fill="url(#paint0_linear)"/>
<path d="M1181.96 136.971C1182.2 137.162 1182.34 137.268 1182.34 137.268C1182.2 137.189 1182.07 137.089 1181.96 136.971Z" fill="url(#paint1_linear)"/>
<path d="M1181.96 136.649C1182.2 136.841 1182.34 136.946 1182.34 136.946C1182.2 136.868 1182.07 136.768 1181.96 136.649Z" fill="url(#paint2_linear)"/>
<g opacity="0.1">
<path opacity="0.1" d="M1169.66 128.842C1162.44 128.934 1153.43 133.58 1153.43 133.58C1154.46 139.899 1157.94 141.586 1164.94 148.905C1171.94 156.224 1178.94 174.904 1178.94 174.904C1178.5 178.318 1183.6 200.439 1185.79 202.617C1187.71 204.515 1187.5 207.706 1187.42 208.505L1186.96 208.69C1186.96 208.69 1187.54 204.798 1185.36 202.617C1183.18 200.435 1178.06 178.318 1178.5 174.904C1178.5 174.904 1171.5 156.22 1164.51 148.901C1157.51 141.582 1154.03 139.896 1153 133.577C1153 133.598 1162.37 128.747 1169.66 128.842Z" fill="black"/>
</g>
<path opacity="0.3" d="M1323.71 106.648V86.1762H1335.85V106.648H1350.24V74.9807H1360.78V51.3102H1369.41V27H1387.31V51.3102H1395.94V74.9807H1406.17V46.5121H1411.92V32.1179H1415.44V46.5121H1435.89V137.356H1451.55V127.759H1461.14V137.356H1476.8V106.648H1504.93V86.1762H1517.08V106.648H1517.72V145.992H1530.5V122.961H1545.84V145.992H1558.63V74.9807H1568.53V51.3102H1604.97V74.9807H1614.56V200.05H1558.63H1517.72H1476.8H1435.89H1406.17H1350.24H1309.32V106.648H1323.71Z" fill="#517BE4"/>
<path opacity="0.4" d="M1595.06 82.3379H1608.49V90.0148H1595.06V82.3379Z" fill="white"/>
<path opacity="0.4" d="M1578.44 90.0146H1565.02V82.3377H1578.44V90.0146Z" fill="white"/>
<path opacity="0.4" d="M1595.06 97.3716H1608.49V105.048H1595.06V97.3716Z" fill="white"/>
<path opacity="0.4" d="M1578.44 105.049H1565.02V97.3719H1578.44V105.049Z" fill="white"/>
<path opacity="0.4" d="M1595.06 112.406H1608.49V120.083H1595.06V112.406Z" fill="white"/>
<path opacity="0.4" d="M1578.44 120.083H1565.02V112.406H1578.44V120.083Z" fill="white"/>
<path opacity="0.4" d="M1595.06 127.439H1608.49V135.116H1595.06V127.439Z" fill="white"/>
<path opacity="0.4" d="M1578.44 135.117H1565.02V127.44H1578.44V135.117Z" fill="white"/>
<path opacity="0.4" d="M1595.06 142.474H1608.49V150.151H1595.06V142.474Z" fill="white"/>
<path opacity="0.4" d="M1578.44 150.15H1565.02V142.473H1578.44V150.15Z" fill="white"/>
<path opacity="0.4" d="M1595.06 157.507H1608.49V165.184H1595.06V157.507Z" fill="white"/>
<path opacity="0.4" d="M1578.44 165.185H1565.02V157.508H1578.44V165.185Z" fill="white"/>
<path opacity="0.4" d="M1595.06 172.542H1608.49V180.218H1595.06V172.542Z" fill="white"/>
<path opacity="0.4" d="M1578.44 180.218H1565.02V172.541H1578.44V180.218Z" fill="white"/>
<path opacity="0.4" d="M1522.51 153.669H1553.83V157.507H1522.51V153.669Z" fill="white"/>
<path opacity="0.4" d="M1522.51 159.427H1553.83V163.265H1522.51V159.427Z" fill="white"/>
<path opacity="0.4" d="M1522.51 165.185H1553.83V169.023H1522.51V165.185Z" fill="white"/>
<path opacity="0.4" d="M1440.79 158.343H1472.12V162.182H1440.79V158.343Z" fill="white"/>
<path opacity="0.4" d="M1440.79 152.177H1472.12V156.016H1440.79V152.177Z" fill="white"/>
<path opacity="0.4" d="M1440.79 164.101H1472.12V167.94H1440.79V164.101Z" fill="white"/>
<path opacity="0.4" d="M1440.79 169.859H1472.12V173.697H1440.79V169.859Z" fill="white"/>
<path opacity="0.4" d="M1440.79 176.025H1472.12V179.863H1440.79V176.025Z" fill="white"/>
<path opacity="0.4" d="M1440.79 182.191H1472.12V186.03H1440.79V182.191Z" fill="white"/>
<path opacity="0.4" d="M1522.51 170.942H1553.83V174.781H1522.51V170.942Z" fill="white"/>
<path opacity="0.4" d="M1522.51 176.7H1553.83V180.538H1522.51V176.7Z" fill="white"/>
<path opacity="0.4" d="M1522.51 182.458H1553.83V186.296H1522.51V182.458Z" fill="white"/>
<path opacity="0.4" d="M1502.37 114.005H1511V125.2H1502.37V114.005Z" fill="white"/>
<path opacity="0.4" d="M1492.15 125.201H1483.52V114.005H1492.15V125.201Z" fill="white"/>
<path opacity="0.4" d="M1502.37 131.918H1511V143.113H1502.37V131.918Z" fill="white"/>
<path opacity="0.4" d="M1492.15 143.113H1483.52V131.918H1492.15V143.113Z" fill="white"/>
<path opacity="0.4" d="M1502.37 149.831H1511V161.026H1502.37V149.831Z" fill="white"/>
<path opacity="0.4" d="M1492.15 161.026H1483.52V149.83H1492.15V161.026Z" fill="white"/>
<path opacity="0.4" d="M1502.37 167.743H1511V178.939H1502.37V167.743Z" fill="white"/>
<path opacity="0.4" d="M1492.15 178.939H1483.52V167.743H1492.15V178.939Z" fill="white"/>
<path opacity="0.4" d="M1412.79 53H1428.79V68H1412.79V53Z" fill="white"/>
<path opacity="0.4" d="M1412.79 74H1428.79V89H1412.79V74Z" fill="white"/>
<path opacity="0.4" d="M1412.79 95H1428.79V110H1412.79V95Z" fill="white"/>
<path opacity="0.4" d="M1412.79 116H1428.79V131H1412.79V116Z" fill="white"/>
<path opacity="0.4" d="M1412.79 137H1428.79V152H1412.79V137Z" fill="white"/>
<path opacity="0.4" d="M1412.79 158H1428.79V173H1412.79V158Z" fill="white"/>
<path opacity="0.4" d="M1356.79 83.937H1399.62V96.412H1356.79V83.937Z" fill="white"/>
<path opacity="0.4" d="M1356.63 110.806H1399.46V123.281H1356.63V110.806Z" fill="white"/>
<path opacity="0.4" d="M1356.47 137.675H1399.3V150.15H1356.47V137.675Z" fill="white"/>
<path opacity="0.4" d="M1356.31 164.545H1399.14V177.02H1356.31V164.545Z" fill="white"/>
<path opacity="0.4" d="M1321.41 114H1335.79V132.553H1321.41V114Z" fill="white"/>
<path opacity="0.4" d="M1321.41 140.869H1335.79V159.422H1321.41V140.869Z" fill="white"/>
<path opacity="0.4" d="M1321.41 167.738H1335.79V186.291H1321.41V167.738Z" fill="white"/>
<path d="M1487.49 140.935C1487.73 141.114 1487.87 141.213 1487.87 141.213C1487.73 141.14 1487.6 141.046 1487.49 140.935Z" fill="url(#paint3_linear)"/>
<path d="M1487.19 141.235C1487.44 141.414 1487.57 141.514 1487.57 141.514C1487.43 141.44 1487.3 141.346 1487.19 141.235Z" fill="url(#paint4_linear)"/>
<path d="M1487.19 140.935C1487.44 141.114 1487.57 141.213 1487.57 141.213C1487.43 141.14 1487.3 141.046 1487.19 140.935Z" fill="url(#paint5_linear)"/>
<g opacity="0.1">
<path opacity="0.1" d="M1474.9 133.619C1467.67 133.706 1458.67 138.059 1458.67 138.059C1459.7 143.98 1463.18 145.56 1470.18 152.418C1477.17 159.276 1484.17 176.78 1484.17 176.78C1483.73 179.978 1488.83 200.706 1491.02 202.747C1492.94 204.525 1492.73 207.516 1492.65 208.265L1492.19 208.437C1492.19 208.437 1492.77 204.791 1490.59 202.747C1488.41 200.703 1483.3 179.978 1483.73 176.78C1483.73 176.78 1476.74 159.273 1469.74 152.415C1462.74 145.557 1459.26 143.977 1458.23 138.056C1458.23 138.075 1467.6 133.53 1474.9 133.619Z" fill="black"/>
</g>
<path opacity="0.05" d="M1474.92 55.9191L1478.93 55.1362L1478.96 55.2806L1474.95 56.0636L1474.92 55.9191Z" fill="black"/>
<path opacity="0.3" d="M1628.94 106.648V86.1762H1641.09V106.648H1655.47V74.9807H1666.02V51.3102H1674.65V27H1692.55V51.3102H1701.18V74.9807H1711.4V46.5121H1717.16V32.1179H1720.67V46.5121H1741.13V137.356H1756.79V127.759H1766.38V137.356H1782.04V106.648H1810.17V86.1762H1822.31V106.648H1822.95V145.992H1835.74V122.961H1851.08V145.992H1863.86V74.9807H1873.77V51.3102H1910.21V74.9807H1919.79V200.05H1863.86H1822.95H1782.04H1741.13H1711.4H1655.47H1614.56V106.648H1628.94Z" fill="#517BE4"/>
<path opacity="0.4" d="M1900.3 82.3379H1913.72V90.0148H1900.3V82.3379Z" fill="white"/>
<path opacity="0.4" d="M1883.68 90.0146H1870.25V82.3377H1883.68V90.0146Z" fill="white"/>
<path opacity="0.4" d="M1900.3 97.3716H1913.72V105.048H1900.3V97.3716Z" fill="white"/>
<path opacity="0.4" d="M1883.68 105.049H1870.25V97.3719H1883.68V105.049Z" fill="white"/>
<path opacity="0.4" d="M1900.3 112.406H1913.72V120.083H1900.3V112.406Z" fill="white"/>
<path opacity="0.4" d="M1883.68 120.083H1870.25V112.406H1883.68V120.083Z" fill="white"/>
<path opacity="0.4" d="M1900.3 127.439H1913.72V135.116H1900.3V127.439Z" fill="white"/>
<path opacity="0.4" d="M1883.68 135.117H1870.25V127.44H1883.68V135.117Z" fill="white"/>
<path opacity="0.4" d="M1900.3 142.474H1913.72V150.151H1900.3V142.474Z" fill="white"/>
<path opacity="0.4" d="M1883.68 150.15H1870.25V142.473H1883.68V150.15Z" fill="white"/>
<path opacity="0.4" d="M1900.3 157.507H1913.72V165.184H1900.3V157.507Z" fill="white"/>
<path opacity="0.4" d="M1883.68 165.185H1870.25V157.508H1883.68V165.185Z" fill="white"/>
<path opacity="0.4" d="M1900.3 172.542H1913.72V180.218H1900.3V172.542Z" fill="white"/>
<path opacity="0.4" d="M1883.68 180.218H1870.25V172.541H1883.68V180.218Z" fill="white"/>
<path opacity="0.4" d="M1827.74 153.669H1859.07V157.507H1827.74V153.669Z" fill="white"/>
<path opacity="0.4" d="M1827.74 159.427H1859.07V163.265H1827.74V159.427Z" fill="white"/>
<path opacity="0.4" d="M1827.74 165.185H1859.07V169.023H1827.74V165.185Z" fill="white"/>
<path opacity="0.4" d="M1746.03 158.343H1777.35V162.182H1746.03V158.343Z" fill="white"/>
<path opacity="0.4" d="M1746.03 152.177H1777.35V156.016H1746.03V152.177Z" fill="white"/>
<path opacity="0.4" d="M1746.03 164.101H1777.35V167.94H1746.03V164.101Z" fill="white"/>
<path opacity="0.4" d="M1746.03 169.859H1777.35V173.697H1746.03V169.859Z" fill="white"/>
<path opacity="0.4" d="M1746.03 176.025H1777.35V179.863H1746.03V176.025Z" fill="white"/>
<path opacity="0.4" d="M1746.03 182.191H1777.35V186.03H1746.03V182.191Z" fill="white"/>
<path opacity="0.4" d="M1827.74 170.942H1859.07V174.781H1827.74V170.942Z" fill="white"/>
<path opacity="0.4" d="M1827.74 176.7H1859.07V180.538H1827.74V176.7Z" fill="white"/>
<path opacity="0.4" d="M1827.74 182.458H1859.07V186.296H1827.74V182.458Z" fill="white"/>
<path opacity="0.4" d="M1807.61 114.005H1816.24V125.2H1807.61V114.005Z" fill="white"/>
<path opacity="0.4" d="M1797.38 125.201H1788.75V114.005H1797.38V125.201Z" fill="white"/>
<path opacity="0.4" d="M1807.61 131.918H1816.24V143.113H1807.61V131.918Z" fill="white"/>
<path opacity="0.4" d="M1797.38 143.113H1788.75V131.918H1797.38V143.113Z" fill="white"/>
<path opacity="0.4" d="M1807.61 149.831H1816.24V161.026H1807.61V149.831Z" fill="white"/>
<path opacity="0.4" d="M1797.38 161.026H1788.75V149.83H1797.38V161.026Z" fill="white"/>
<path opacity="0.4" d="M1807.61 167.743H1816.24V178.939H1807.61V167.743Z" fill="white"/>
<path opacity="0.4" d="M1797.38 178.939H1788.75V167.743H1797.38V178.939Z" fill="white"/>
<path opacity="0.4" d="M1718.79 57H1732.79V72H1718.79V57Z" fill="white"/>
<path opacity="0.4" d="M1718.79 78H1732.79V93H1718.79V78Z" fill="white"/>
<path opacity="0.4" d="M1718.79 99H1732.79V114H1718.79V99Z" fill="white"/>
<path opacity="0.4" d="M1718.79 120H1732.79V135H1718.79V120Z" fill="white"/>
<path opacity="0.4" d="M1718.79 141H1732.79V156H1718.79V141Z" fill="white"/>
<path opacity="0.4" d="M1718.79 163H1732.79V177H1718.79V163Z" fill="white"/>
<path opacity="0.4" d="M1662.02 83.937H1704.85V96.412H1662.02V83.937Z" fill="white"/>
<path opacity="0.4" d="M1661.86 110.806H1704.69V123.281H1661.86V110.806Z" fill="white"/>
<path opacity="0.4" d="M1661.7 137.675H1704.53V150.15H1661.7V137.675Z" fill="white"/>
<path opacity="0.4" d="M1661.54 164.545H1704.37V177.02H1661.54V164.545Z" fill="white"/>
<path opacity="0.4" d="M1622.79 114H1645.79V133H1622.79V114Z" fill="white"/>
<path opacity="0.4" d="M1622.79 141H1645.79V159H1622.79V141Z" fill="white"/>
<path opacity="0.4" d="M1622.79 168H1645.79V186H1622.79V168Z" fill="white"/>
<path d="M1792.72 140.935C1792.97 141.114 1793.1 141.213 1793.1 141.213C1792.96 141.14 1792.84 141.046 1792.72 140.935Z" fill="url(#paint6_linear)"/>
<path d="M1792.43 141.235C1792.67 141.414 1792.81 141.514 1792.81 141.514C1792.67 141.44 1792.54 141.346 1792.43 141.235Z" fill="url(#paint7_linear)"/>
<path d="M1792.43 140.935C1792.67 141.114 1792.81 141.213 1792.81 141.213C1792.67 141.14 1792.54 141.046 1792.43 140.935Z" fill="url(#paint8_linear)"/>
<g opacity="0.1">
<path opacity="0.1" d="M1780.13 133.619C1772.9 133.706 1763.9 138.059 1763.9 138.059C1764.93 143.98 1768.41 145.56 1775.41 152.418C1782.41 159.276 1789.41 176.78 1789.41 176.78C1788.97 179.978 1794.07 200.706 1796.26 202.747C1798.18 204.525 1797.97 207.516 1797.89 208.265L1797.43 208.437C1797.43 208.437 1798.01 204.791 1795.83 202.747C1793.65 200.703 1788.53 179.978 1788.97 176.78C1788.97 176.78 1781.97 159.273 1774.98 152.415C1767.98 145.557 1764.5 143.977 1763.47 138.056C1763.47 138.075 1772.84 133.53 1780.13 133.619Z" fill="black"/>
</g>
<path opacity="0.05" d="M1780.16 55.9191L1784.16 55.1362L1784.19 55.2806L1780.19 56.0636L1780.16 55.9191Z" fill="black"/>
<path opacity="0.3" d="M738 100.155V200H708.613H667.377H611V66.3032H620.665V41H657.39V66.3032H667.377V142.213H680.263V117.594H695.727V142.213H708.613V100.155H738Z" fill="#517BE4"/>
<path opacity="0.4" d="M630.496 74.1133H617.072V82.3063H630.496V74.1133Z" fill="white"/>
<path opacity="0.4" d="M647.117 82.3062H660.541V74.1132H647.117V82.3062Z" fill="white"/>
<path opacity="0.4" d="M630.496 90.1577H617.072V98.3507H630.496V90.1577Z" fill="white"/>
<path opacity="0.4" d="M647.117 98.3511H660.541V90.1581H647.117V98.3511Z" fill="white"/>
<path opacity="0.4" d="M630.496 106.203H617.072V114.396H630.496V106.203Z" fill="white"/>
<path opacity="0.4" d="M647.117 114.396H660.541V106.203H647.117V114.396Z" fill="white"/>
<path opacity="0.4" d="M630.496 122.247H617.072V130.44H630.496V122.247Z" fill="white"/>
<path opacity="0.4" d="M647.117 130.44H660.541V122.247H647.117V130.44Z" fill="white"/>
<path opacity="0.4" d="M630.496 138.292H617.072V146.484H630.496V138.292Z" fill="white"/>
<path opacity="0.4" d="M647.117 146.485H660.541V138.292H647.117V146.485Z" fill="white"/>
<path opacity="0.4" d="M630.496 154.336H617.072V162.529H630.496V154.336Z" fill="white"/>
<path opacity="0.4" d="M647.117 162.529H660.541V154.336H647.117V162.529Z" fill="white"/>
<path opacity="0.4" d="M630.496 170.381H617.072V178.574H630.496V170.381Z" fill="white"/>
<path opacity="0.4" d="M647.117 178.574H660.541V170.381H647.117V178.574Z" fill="white"/>
<path opacity="0.4" d="M703.05 150.24H671.728V154.336H703.05V150.24Z" fill="white"/>
<path opacity="0.4" d="M703.05 156.384H671.728V160.481H703.05V156.384Z" fill="white"/>
<path opacity="0.4" d="M703.05 162.529H671.728V166.626H703.05V162.529Z" fill="white"/>
<path opacity="0.4" d="M703.05 168.674H671.728V172.77H703.05V168.674Z" fill="white"/>
<path opacity="0.4" d="M703.05 174.818H671.728V178.915H703.05V174.818Z" fill="white"/>
<path opacity="0.4" d="M703.05 180.963H671.728V185.06H703.05V180.963Z" fill="white"/>
<path opacity="0.4" d="M732 106H717V118H732V106Z" fill="white"/>
<path opacity="0.4" d="M732 125H717V137H732V125Z" fill="white"/>
<path opacity="0.4" d="M732 144H717V156H732V144Z" fill="white"/>
<path opacity="0.4" d="M732 163H717V175H732V163Z" fill="white"/>
<path d="M738.071 136.649C737.825 136.841 737.69 136.946 737.69 136.946C737.83 136.868 737.958 136.768 738.071 136.649Z" fill="url(#paint9_linear)"/>
<path d="M738.368 136.971C738.122 137.162 737.987 137.268 737.987 137.268C738.127 137.189 738.255 137.089 738.368 136.971Z" fill="url(#paint10_linear)"/>
<path d="M738.368 136.649C738.122 136.841 737.987 136.946 737.987 136.946C738.127 136.868 738.255 136.768 738.368 136.649Z" fill="url(#paint11_linear)"/>
<g opacity="0.1">
<path opacity="0.1" d="M750.663 128.842C757.89 128.934 766.89 133.58 766.89 133.58C765.861 139.899 762.381 141.586 755.384 148.905C748.388 156.224 741.388 174.904 741.388 174.904C741.826 178.318 736.725 200.439 734.535 202.617C732.618 204.515 732.829 207.706 732.909 208.505L733.369 208.69C733.369 208.69 732.787 204.798 734.967 202.617C737.147 200.435 742.264 178.318 741.826 174.904C741.826 174.904 748.822 156.22 755.819 148.901C762.815 141.582 766.299 139.896 767.325 133.577C767.328 133.598 757.957 128.747 750.663 128.842Z" fill="black"/>
</g>
<path opacity="0.05" d="M750.637 45.919L746.631 45.0835L746.603 45.2376L750.609 46.0732L750.637 45.919Z" fill="black"/>
<path opacity="0.3" d="M596.852 106.648V86.1762H584.706V106.648H570.324V74.9807H559.776V51.3102H551.147V27H533.248V51.3102H524.618V74.9807H514.391V46.5121H508.637V32.1179H505.122V46.5121H484.666V137.356H469.005V127.759H459.416V137.356H443.755V106.648H415.629V86.1762H403.483V106.648H402.844V145.992H390.059V122.961H374.718V145.992H361.933V74.9807H352.025V51.3102H315.589V74.9807H306V200.05H361.933H402.844H443.755H484.666H514.391H570.324H611.235V106.648H596.852Z" fill="#517BE4"/>
<path opacity="0.4" d="M325.497 82.3379H312.073V90.0148H325.497V82.3379Z" fill="white"/>
<path opacity="0.4" d="M342.117 90.0146H355.541V82.3377H342.117V90.0146Z" fill="white"/>
<path opacity="0.4" d="M325.497 97.3716H312.073V105.048H325.497V97.3716Z" fill="white"/>
<path opacity="0.4" d="M342.117 105.049H355.541V97.3719H342.117V105.049Z" fill="white"/>
<path opacity="0.4" d="M325.497 112.406H312.073V120.083H325.497V112.406Z" fill="white"/>
<path opacity="0.4" d="M342.117 120.083H355.541V112.406H342.117V120.083Z" fill="white"/>
<path opacity="0.4" d="M325.497 127.439H312.073V135.116H325.497V127.439Z" fill="white"/>
<path opacity="0.4" d="M342.117 135.117H355.541V127.44H342.117V135.117Z" fill="white"/>
<path opacity="0.4" d="M325.497 142.474H312.073V150.151H325.497V142.474Z" fill="white"/>
<path opacity="0.4" d="M342.117 150.15H355.541V142.473H342.117V150.15Z" fill="white"/>
<path opacity="0.4" d="M325.497 157.507H312.073V165.184H325.497V157.507Z" fill="white"/>
<path opacity="0.4" d="M342.117 165.185H355.541V157.508H342.117V165.185Z" fill="white"/>
<path opacity="0.4" d="M325.497 172.542H312.073V180.218H325.497V172.542Z" fill="white"/>
<path opacity="0.4" d="M342.117 180.218H355.541V172.541H342.117V180.218Z" fill="white"/>
<path opacity="0.4" d="M398.05 153.669H366.728V157.507H398.05V153.669Z" fill="white"/>
<path opacity="0.4" d="M398.05 159.427H366.728V163.265H398.05V159.427Z" fill="white"/>
<path opacity="0.4" d="M398.05 165.185H366.728V169.023H398.05V165.185Z" fill="white"/>
<path opacity="0.4" d="M479.765 158.343H448.443V162.182H479.765V158.343Z" fill="white"/>
<path opacity="0.4" d="M479.765 152.177H448.443V156.016H479.765V152.177Z" fill="white"/>
<path opacity="0.4" d="M479.765 164.101H448.443V167.94H479.765V164.101Z" fill="white"/>
<path opacity="0.4" d="M479.765 169.859H448.443V173.697H479.765V169.859Z" fill="white"/>
<path opacity="0.4" d="M479.765 176.025H448.443V179.863H479.765V176.025Z" fill="white"/>
<path opacity="0.4" d="M479.765 182.191H448.443V186.03H479.765V182.191Z" fill="white"/>
<path opacity="0.4" d="M398.05 170.942H366.728V174.781H398.05V170.942Z" fill="white"/>
<path opacity="0.4" d="M398.05 176.7H366.728V180.538H398.05V176.7Z" fill="white"/>
<path opacity="0.4" d="M398.05 182.458H366.728V186.296H398.05V182.458Z" fill="white"/>
<path opacity="0.4" d="M418.186 114.005H409.556V125.2H418.186V114.005Z" fill="white"/>
<path opacity="0.4" d="M428.414 125.201H437.043V114.005H428.414V125.201Z" fill="white"/>
<path opacity="0.4" d="M418.186 131.918H409.556V143.113H418.186V131.918Z" fill="white"/>
<path opacity="0.4" d="M428.414 143.113H437.043V131.918H428.414V143.113Z" fill="white"/>
<path opacity="0.4" d="M418.186 149.831H409.556V161.026H418.186V149.831Z" fill="white"/>
<path opacity="0.4" d="M428.414 161.026H437.043V149.83H428.414V161.026Z" fill="white"/>
<path opacity="0.4" d="M418.186 167.743H409.556V178.939H418.186V167.743Z" fill="white"/>
<path opacity="0.4" d="M428.414 178.939H437.043V167.743H428.414V178.939Z" fill="white"/>
<path opacity="0.4" d="M506 55H494V73H506V55Z" fill="white"/>
<path opacity="0.4" d="M506 81H494V98H506V81Z" fill="white"/>
<path opacity="0.4" d="M506 106H494V124H506V106Z" fill="white"/>
<path opacity="0.4" d="M506 132H494V149H506V132Z" fill="white"/>
<path opacity="0.4" d="M506 157H494V175H506V157Z" fill="white"/>
<path opacity="0.4" d="M563.772 83.937H520.943V96.412H563.772V83.937Z" fill="white"/>
<path opacity="0.4" d="M563.931 110.806H521.103V123.281H563.931V110.806Z" fill="white"/>
<path opacity="0.4" d="M564.091 137.675H521.262V150.15H564.091V137.675Z" fill="white"/>
<path opacity="0.4" d="M564.251 164.545H521.422V177.02H564.251V164.545Z" fill="white"/>
<path opacity="0.4" d="M342.412 58H325V70.1551H342.412V58Z" fill="white"/>
<path opacity="0.4" d="M601 111H581V130H601V111Z" fill="white"/>
<path opacity="0.4" d="M601 138H581V156H601V138Z" fill="white"/>
<path opacity="0.4" d="M601 165H581V183H601V165Z" fill="white"/>
<path d="M433.071 140.935C432.825 141.114 432.69 141.213 432.69 141.213C432.83 141.14 432.958 141.046 433.071 140.935Z" fill="url(#paint12_linear)"/>
<path d="M433.368 141.235C433.122 141.414 432.987 141.514 432.987 141.514C433.127 141.44 433.255 141.346 433.368 141.235Z" fill="url(#paint13_linear)"/>
<path d="M433.368 140.935C433.122 141.114 432.987 141.213 432.987 141.213C433.127 141.14 433.255 141.046 433.368 140.935Z" fill="url(#paint14_linear)"/>
<g opacity="0.1">
<path opacity="0.1" d="M445.663 133.619C452.89 133.706 461.89 138.059 461.89 138.059C460.861 143.98 457.381 145.56 450.384 152.418C443.388 159.276 436.388 176.78 436.388 176.78C436.826 179.978 431.725 200.706 429.535 202.747C427.618 204.525 427.829 207.516 427.909 208.265L428.369 208.437C428.369 208.437 427.787 204.791 429.967 202.747C432.147 200.703 437.264 179.978 436.826 176.78C436.826 176.78 443.822 159.273 450.819 152.415C457.815 145.557 461.299 143.977 462.325 138.056C462.328 138.075 452.957 133.53 445.663 133.619Z" fill="black"/>
</g>
<path opacity="0.05" d="M445.637 55.9191L441.631 55.1362L441.603 55.2806L445.609 56.0636L445.637 55.9191Z" fill="black"/>
<path opacity="0.3" d="M291.852 106.648V86.1762H279.706V106.648H265.324V74.9807H254.776V51.3102H246.147V27H228.248V51.3102H219.618V74.9807H209.391V46.5121H203.637V32.1179H200.122V46.5121H179.666V137.356H164.005V127.759H154.416V137.356H138.755V106.648H110.629V86.1762H98.4833V106.648H97.8441V145.992H85.0594V122.961H69.7178V145.992H56.9331V74.9807H47.0249V51.3102H10.5885V74.9807H1V200.05H56.9331H97.8441H138.755H179.666H209.391H265.324H306.235V106.648H291.852Z" fill="#517BE4"/>
<path opacity="0.4" d="M20.4967 82.3379H7.07275V90.0148H20.4967V82.3379Z" fill="white"/>
<path opacity="0.4" d="M37.1166 90.0146H50.5405V82.3377H37.1166V90.0146Z" fill="white"/>
<path opacity="0.4" d="M20.4967 97.3716H7.07275V105.048H20.4967V97.3716Z" fill="white"/>
<path opacity="0.4" d="M37.1166 105.049H50.5405V97.3719H37.1166V105.049Z" fill="white"/>
<path opacity="0.4" d="M20.4967 112.406H7.07275V120.083H20.4967V112.406Z" fill="white"/>
<path opacity="0.4" d="M37.1166 120.083H50.5405V112.406H37.1166V120.083Z" fill="white"/>
<path opacity="0.4" d="M20.4967 127.439H7.07275V135.116H20.4967V127.439Z" fill="white"/>
<path opacity="0.4" d="M37.1166 135.117H50.5405V127.44H37.1166V135.117Z" fill="white"/>
<path opacity="0.4" d="M20.4967 142.474H7.07275V150.151H20.4967V142.474Z" fill="white"/>
<path opacity="0.4" d="M37.1166 150.15H50.5405V142.473H37.1166V150.15Z" fill="white"/>
<path opacity="0.4" d="M20.4967 157.507H7.07275V165.184H20.4967V157.507Z" fill="white"/>
<path opacity="0.4" d="M37.1166 165.185H50.5405V157.508H37.1166V165.185Z" fill="white"/>
<path opacity="0.4" d="M20.4967 172.542H7.07275V180.218H20.4967V172.542Z" fill="white"/>
<path opacity="0.4" d="M37.1166 180.218H50.5405V172.541H37.1166V180.218Z" fill="white"/>
<path opacity="0.4" d="M93.0501 153.669H61.7275V157.507H93.0501V153.669Z" fill="white"/>
<path opacity="0.4" d="M93.0501 159.427H61.7275V163.265H93.0501V159.427Z" fill="white"/>
<path opacity="0.4" d="M93.0501 165.185H61.7275V169.023H93.0501V165.185Z" fill="white"/>
<path opacity="0.4" d="M174.765 158.343H143.443V162.182H174.765V158.343Z" fill="white"/>
<path opacity="0.4" d="M174.765 152.177H143.443V156.016H174.765V152.177Z" fill="white"/>
<path opacity="0.4" d="M174.765 164.101H143.443V167.94H174.765V164.101Z" fill="white"/>
<path opacity="0.4" d="M174.765 169.859H143.443V173.697H174.765V169.859Z" fill="white"/>
<path opacity="0.4" d="M174.765 176.025H143.443V179.863H174.765V176.025Z" fill="white"/>
<path opacity="0.4" d="M174.765 182.191H143.443V186.03H174.765V182.191Z" fill="white"/>
<path opacity="0.4" d="M93.0501 170.942H61.7275V174.781H93.0501V170.942Z" fill="white"/>
<path opacity="0.4" d="M93.0501 176.7H61.7275V180.538H93.0501V176.7Z" fill="white"/>
<path opacity="0.4" d="M93.0501 182.458H61.7275V186.296H93.0501V182.458Z" fill="white"/>
<path opacity="0.4" d="M113.186 114.005H104.556V125.2H113.186V114.005Z" fill="white"/>
<path opacity="0.4" d="M123.414 125.201H132.043V114.005H123.414V125.201Z" fill="white"/>
<path opacity="0.4" d="M113.186 131.918H104.556V143.113H113.186V131.918Z" fill="white"/>
<path opacity="0.4" d="M123.414 143.113H132.043V131.918H123.414V143.113Z" fill="white"/>
<path opacity="0.4" d="M113.186 149.831H104.556V161.026H113.186V149.831Z" fill="white"/>
<path opacity="0.4" d="M123.414 161.026H132.043V149.83H123.414V161.026Z" fill="white"/>
<path opacity="0.4" d="M113.186 167.743H104.556V178.939H113.186V167.743Z" fill="white"/>
<path opacity="0.4" d="M123.414 178.939H132.043V167.743H123.414V178.939Z" fill="white"/>
<path opacity="0.4" d="M202 54H187V72H202V54Z" fill="white"/>
<path opacity="0.4" d="M202 80H187V98H202V80Z" fill="white"/>
<path opacity="0.4" d="M202 106H187V124H202V106Z" fill="white"/>
<path opacity="0.4" d="M202 132H187V150H202V132Z" fill="white"/>
<path opacity="0.4" d="M202 158H187V176H202V158Z" fill="white"/>
<path opacity="0.4" d="M258.772 83.937H215.943V96.412H258.772V83.937Z" fill="white"/>
<path opacity="0.4" d="M258.931 110.806H216.103V123.281H258.931V110.806Z" fill="white"/>
<path opacity="0.4" d="M259.091 137.675H216.262V150.15H259.091V137.675Z" fill="white"/>
<path opacity="0.4" d="M259.251 164.545H216.422V177.02H259.251V164.545Z" fill="white"/>
<path opacity="0.4" d="M300 112H272V129H300V112Z" fill="white"/>
<path opacity="0.4" d="M300 137H272V153H300V137Z" fill="white"/>
<path opacity="0.4" d="M300 162H272V178H300V162Z" fill="white"/>
<path d="M128.071 140.935C127.825 141.114 127.69 141.213 127.69 141.213C127.83 141.14 127.958 141.046 128.071 140.935Z" fill="url(#paint15_linear)"/>
<path d="M128.368 141.235C128.122 141.414 127.987 141.514 127.987 141.514C128.127 141.44 128.255 141.346 128.368 141.235Z" fill="url(#paint16_linear)"/>
<path d="M128.368 140.935C128.122 141.114 127.987 141.213 127.987 141.213C128.127 141.14 128.255 141.046 128.368 140.935Z" fill="url(#paint17_linear)"/>
<g opacity="0.1">
<path opacity="0.1" d="M140.663 133.619C147.89 133.706 156.89 138.059 156.89 138.059C155.861 143.98 152.381 145.56 145.384 152.418C138.388 159.276 131.388 176.78 131.388 176.78C131.826 179.978 126.725 200.706 124.535 202.747C122.618 204.525 122.829 207.516 122.909 208.265L123.369 208.437C123.369 208.437 122.787 204.791 124.967 202.747C127.147 200.703 132.264 179.978 131.826 176.78C131.826 176.78 138.822 159.273 145.819 152.415C152.815 145.557 156.299 143.977 157.325 138.056C157.328 138.075 147.957 133.53 140.663 133.619Z" fill="black"/>
</g>
<path opacity="0.05" d="M140.637 55.9191L136.631 55.1362L136.603 55.2806L140.609 56.0636L140.637 55.9191Z" fill="black"/>
<path d="M1034 84.5732V85.0137C1033.99 86.1198 1033.96 87.2208 1033.9 88.317C1032.95 107.075 1024.87 124.758 1011.31 137.742C997.75 150.726 979.744 158.028 960.981 158.151C942.217 158.274 924.117 151.209 910.39 138.403C896.663 125.598 888.348 108.022 887.15 89.2779C887.05 87.7213 887 86.1531 887 84.5732C886.974 69.335 891.698 54.4683 900.515 42.046C901.22 41.045 901.953 40.0624 902.715 39.0981C903.24 38.4274 903.78 37.7718 904.325 37.1211C916.733 22.4077 934.407 13.1483 953.556 11.3293C972.706 9.51034 991.804 15.2768 1006.76 27.3915C1007.64 28.1072 1008.51 28.8479 1009.36 29.6037C1010.04 30.2093 1010.71 30.8282 1011.36 31.4605C1024.3 43.8434 1032.26 60.5346 1033.74 78.3871C1033.92 80.4291 1034 82.4911 1034 84.5732Z" fill="#254981"/>
<path d="M902.715 39.098C902.751 39.1131 902.785 39.1334 902.815 39.1581C903.21 39.4834 902.715 40.109 902.775 40.6245C902.845 41.2852 903.725 41.4303 904.39 41.4954C905.055 41.5655 905.895 42.101 905.58 42.6916C903.91 43.2671 902.22 42.7016 900.515 42.0459C891.698 54.4682 886.974 69.3349 887 84.5731C887 86.1547 887.05 87.7229 887.15 89.2778C887.29 89.3799 887.443 89.4624 887.605 89.523C888.105 89.7132 888.685 89.6782 889.145 89.9485C889.51 90.1637 889.755 90.5441 890.12 90.7443C891.165 91.3148 892.615 90.2187 893.59 90.8994C893.842 91.1292 894.081 91.3731 894.305 91.6301C895.205 92.4109 896.685 91.8854 897.725 92.471C898.395 92.8463 898.74 93.5971 899.1 94.2778C899.995 95.9795 901.445 97.6511 903.36 97.7863C903.964 97.7585 904.569 97.7786 905.17 97.8463C905.76 97.9814 906.34 98.4969 906.245 99.0925C906.08 100.119 906.585 101.24 906.45 102.266C906.205 104.143 903.55 104.963 903.325 106.84C903.324 107.253 903.301 107.666 903.255 108.076C903.135 108.567 902.765 108.967 902.635 109.458C902.385 110.384 903.05 111.31 903.775 111.93C904.505 112.556 905.375 113.096 905.775 113.967C906.195 114.893 905.99 115.969 906.125 116.975C906.425 119.173 908.32 120.799 910.27 121.85C910.895 122.112 911.45 122.516 911.89 123.031C912.39 123.757 912.34 124.713 912.51 125.579C912.92 127.696 914.7 129.443 914.75 131.6C914.785 133.136 913.935 134.528 913.425 135.974C912.9 137.49 912.744 139.11 912.97 140.699C915.821 143.119 918.851 145.319 922.035 147.28C922.208 147.024 922.335 146.74 922.41 146.44C922.471 146.108 922.429 145.765 922.29 145.458C922.152 145.15 921.923 144.892 921.635 144.718C922.172 144.515 922.661 144.201 923.07 143.797C923.271 143.59 923.404 143.327 923.45 143.042C923.497 142.757 923.455 142.465 923.33 142.205C924.21 142.315 925.255 142.37 925.835 141.695C926.3 141.154 926.27 140.343 926.085 139.658C925.9 138.967 925.59 138.301 925.585 137.586C927.624 137.685 929.667 137.616 931.695 137.381C931.402 136.391 930.734 135.554 929.835 135.048C930.755 134.893 931.59 133.792 931.88 132.906C932.131 132.002 932.145 131.049 931.92 130.138C931.851 129.904 931.84 129.657 931.89 129.418C932.038 129.1 932.298 128.849 932.62 128.712C934.14 127.836 935.66 126.962 937.18 126.089C937.451 125.952 937.698 125.771 937.91 125.554C938.385 124.988 938.315 124.142 938.07 123.447C937.825 122.751 937.435 122.095 937.34 121.365C937.06 119.177 939.4 117.606 940.19 115.544C940.459 114.721 940.604 113.862 940.62 112.996C940.685 112.065 940.69 110.989 939.98 110.394C939.295 109.818 938.23 109.948 937.515 109.413C936.86 108.922 936.635 107.976 935.92 107.581C935.27 107.221 934.46 107.451 933.735 107.281C932.465 106.985 931.665 105.519 930.365 105.384C929.635 105.304 928.805 105.664 928.205 105.239C927.675 104.858 927.655 104.103 927.555 103.462C927.378 102.464 926.899 101.545 926.184 100.827C925.469 100.109 924.551 99.6281 923.555 99.4479C922.8 99.3278 921.98 99.3728 921.335 98.9574C920.685 98.537 920.39 97.7512 919.875 97.1656C919.055 96.2297 917.755 95.8944 916.54 95.6091C914.89 95.2237 913.242 94.8367 911.595 94.4479C910.72 94.2377 909.59 94.1276 909.115 94.8984C908.975 95.1915 908.877 95.5033 908.825 95.8243C908.646 96.4019 908.29 96.9084 907.807 97.2714C907.324 97.6345 906.739 97.8357 906.135 97.8463C905.722 97.1396 905.052 96.6197 904.265 96.3949C903.751 96.3085 903.243 96.1881 902.745 96.0345C902.485 95.9069 902.254 95.7276 902.065 95.5074C901.876 95.2872 901.735 95.0308 901.649 94.7539C901.563 94.477 901.534 94.1854 901.564 93.897C901.594 93.6086 901.683 93.3294 901.825 93.0766C902.109 92.5687 902.218 91.9816 902.135 91.4056C902.053 90.8296 901.784 90.2966 901.37 89.8884C900.53 89.1326 899.315 88.9475 898.185 89.0226C897.89 88.3769 898.385 87.6512 898.915 87.1807C899.45 86.7153 900.095 86.2548 900.21 85.5541C900.395 84.453 898.99 83.6172 897.925 83.9425C896.86 84.2728 896.18 85.3089 895.73 86.3299C895.512 86.9323 895.214 87.5029 894.845 88.0266C894.656 88.2856 894.399 88.4872 894.102 88.6091C893.806 88.731 893.482 88.7685 893.165 88.7173C892.285 88.492 891.95 87.446 891.755 86.5651C891.443 85.3878 891.285 84.1747 891.285 82.9565C891.293 81.7263 891.781 80.5479 892.645 79.6733C894.1 78.332 896.34 78.4621 898.305 78.6773C898.095 78.3963 897.994 78.0481 898.021 77.698C898.049 77.3479 898.203 77.0198 898.455 76.7754C898.718 76.5417 899.034 76.3757 899.376 76.292C899.717 76.2083 900.074 76.2093 900.415 76.2949C901.008 76.4177 901.541 76.7369 901.93 77.2008C902.49 77.8815 902.65 78.8074 903.07 79.5782C903.495 80.3539 904.445 81.0146 905.22 80.5992C905.895 80.2388 906 79.3079 905.835 78.5622C905.665 77.8214 905.31 77.0957 905.37 76.335C905.485 74.8885 906.99 74.0127 908.315 73.4171C909.64 72.8215 911.155 72.0157 911.365 70.5743C911.375 70.2939 911.429 70.0169 911.525 69.7535C911.672 69.5183 911.877 69.3252 912.12 69.1929C915.985 66.6354 919.92 64.0428 924.34 62.6464C924.57 62.5713 924.595 62.6514 924.83 62.5964C925.16 62.4062 924.94 61.8806 924.625 61.6704C924.31 61.4602 923.89 61.2951 923.81 60.9247C923.755 60.6544 923.915 60.3842 923.955 60.1089C923.966 59.9426 923.935 59.7763 923.866 59.6246C923.798 59.4728 923.693 59.3403 923.561 59.2385C923.429 59.1367 923.275 59.0689 923.111 59.0409C922.947 59.0129 922.778 59.0256 922.62 59.0779C922.265 58.6074 922.965 58.0619 923.535 57.9017C925.242 57.4337 926.993 57.1485 928.76 57.0509C928.964 57.0171 929.173 57.0524 929.355 57.151C929.485 57.2764 929.562 57.4469 929.57 57.6275C929.579 57.808 929.518 57.9849 929.4 58.1219C929.16 58.3894 928.893 58.6324 928.605 58.8476C928.318 59.1265 928.113 59.4789 928.013 59.8664C927.912 60.2538 927.92 60.6614 928.035 61.0448C928.96 61.5153 929.96 62.0008 930.985 61.8356C932.005 61.6704 932.91 60.5193 932.43 59.6034C931.985 58.7475 930.64 58.5523 930.41 57.6164C930.14 56.5203 931.69 55.5443 931.34 54.4733C931.19 54.0028 930.72 53.7225 930.36 53.3872C929.936 52.9697 929.648 52.434 929.533 51.8502C929.418 51.2663 929.481 50.6612 929.715 50.114C929.13 50.2163 928.528 50.1771 927.961 49.9995C927.394 49.8218 926.878 49.511 926.455 49.0929C925.675 48.3072 925.055 47.0609 923.945 47.101C922.93 47.131 922.055 48.3172 921.105 47.9568C920.87 47.8667 920.625 47.6865 920.4 47.7917C920.326 47.8394 920.263 47.9034 920.218 47.9789C920.172 48.0543 920.143 48.1392 920.135 48.2271C919.895 49.3832 920.31 50.6995 919.68 51.7005C918.995 52.7866 917.41 52.9368 916.58 53.9177C916.13 54.4483 915.955 55.164 915.54 55.7245C915.125 56.2851 914.25 56.6454 913.75 56.1549C913.995 55.6525 914.062 55.0817 913.94 54.5361C913.819 53.9904 913.515 53.5024 913.08 53.152C912.62 52.8494 912.122 52.6072 911.6 52.4313C911.017 52.1849 910.462 51.8761 909.945 51.5104C909.687 51.3533 909.478 51.1282 909.34 50.8597C909.231 50.5222 909.245 50.1567 909.38 49.8287C909.633 49.1058 910.078 48.4657 910.668 47.9772C911.257 47.4887 911.968 47.1702 912.725 47.0559C913.385 46.9659 914.155 46.9959 914.595 46.4904C914.825 46.2251 914.945 45.8197 915.285 45.7146C915.499 45.6699 915.722 45.6962 915.92 45.7897C916.745 46.08 917.565 46.3703 918.39 46.6606C918.665 46.7869 918.969 46.837 919.27 46.8057C919.419 46.7864 919.556 46.7111 919.651 46.5949C919.747 46.4787 919.795 46.3304 919.785 46.1801C919.705 45.7697 919.075 45.5745 919.135 45.1591C919.164 45.0233 919.236 44.9006 919.34 44.8087C920.232 43.8592 921.322 43.1188 922.533 42.6403C923.744 42.1618 925.046 41.9572 926.345 42.041C926.655 42.5565 926.165 43.1621 925.75 43.5975C925.34 44.038 925.01 44.8187 925.51 45.1541C925.712 45.2599 925.937 45.3117 926.165 45.3042C926.773 45.3859 927.364 45.565 927.915 45.8347C928.77 46.2051 929.61 46.6155 930.43 47.0559C930.309 46.5193 930.33 45.9605 930.49 45.4343C930.58 45.176 930.764 44.9607 931.004 44.8302C931.244 44.6998 931.525 44.6635 931.79 44.7286C932.28 44.9188 932.53 45.5695 933.055 45.6295C933.75 45.7096 934.025 44.6786 933.735 44.0379C933.445 43.3973 932.865 42.8668 932.82 42.1611C932.785 41.6906 932.965 41.105 932.59 40.8198C932.457 40.7313 932.304 40.6764 932.145 40.6596C929.005 40.084 925.863 39.5068 922.72 38.9279C922.16 38.8228 921.355 38.9029 921.33 39.4684C921.315 39.7887 921.6 40.104 921.475 40.3943C921.34 40.7046 920.9 40.6796 920.58 40.7897C920.34 40.8989 920.141 41.0835 920.015 41.3156C919.889 41.5476 919.841 41.8146 919.88 42.076C919.966 42.5964 920.167 43.0909 920.47 43.5224C919.855 43.2672 918.93 43.2221 918.315 42.9619C918.226 42.2491 918.044 41.5509 917.775 40.8848C917.76 40.7788 917.721 40.6775 917.663 40.5879C917.604 40.4984 917.526 40.4228 917.435 40.3665C917.344 40.3102 917.242 40.2746 917.136 40.2621C917.029 40.2496 916.922 40.2606 916.82 40.2942C916.01 40.4194 915.2 40.5395 914.39 40.6646C914.187 40.6743 913.992 40.7498 913.835 40.8798C913.52 41.2151 913.83 41.7507 913.82 42.2111C913.791 42.4686 913.682 42.7106 913.509 42.9034C913.336 43.0962 913.108 43.2304 912.855 43.2872C912.346 43.3906 911.821 43.3838 911.315 43.2672C910.18 43.092 909.05 42.9168 907.915 42.7417C908.917 42.4221 909.808 41.8252 910.485 41.02C910.935 40.4894 911.175 39.4984 910.525 39.2482C910.333 39.1954 910.133 39.1801 909.935 39.2032C908.395 39.2132 907.18 37.9269 905.74 37.3814C905.287 37.2123 904.808 37.1242 904.325 37.1211L902.715 39.098Z" fill="#E0E7FA"/>
<path d="M1033.91 88.3169C1033.73 88.5538 1033.5 88.7439 1033.23 88.8704C1032.96 88.9969 1032.67 89.056 1032.38 89.0426C1030.81 88.9075 1030.15 86.6502 1028.6 86.395C1028.46 86.3598 1028.32 86.374 1028.19 86.435C1027.96 86.5601 1027.92 86.8704 1027.91 87.1307C1027.84 88.422 1027.79 89.7633 1028.29 90.9545C1029.03 92.6962 1030.93 94.1577 1030.53 96.0045C1028.38 95.0085 1027.26 92.5911 1026.76 90.2738C1026.25 87.9565 1026.17 85.5241 1025.26 83.3319C1024.56 84.2178 1023.11 83.4871 1022.48 82.5562C1021.88 81.6753 1021.51 80.6543 1020.93 79.7584C1020.35 78.8675 1019.46 78.0667 1018.4 78.0167C1017.29 77.9666 1016.32 78.7324 1015.47 79.4581C1014.73 80.0048 1014.1 80.6961 1013.64 81.4901C1013.05 82.6913 1013.2 84.1027 1013.17 85.439C1013.14 86.8805 1012.84 88.407 1011.85 89.468C1010.87 90.5241 1009.05 90.8944 1007.97 89.9385C1007.44 89.3911 1007.07 88.7168 1006.88 87.9816C1005.7 84.5405 1004.72 81.0346 1003.94 77.4812C1003.76 78.292 1003.05 79.338 1002.37 78.8625C1002.21 78.7331 1002.09 78.5727 1002.01 78.3921C1000.74 76.2449 998.39 74.9537 996.015 74.1779C993.645 73.4071 991.15 73.0468 988.805 72.1959C987.49 71.7179 986.234 71.0916 985.06 70.3291C984.762 70.7686 984.588 71.2805 984.556 71.8108C984.525 72.3411 984.637 72.8701 984.88 73.342C985.144 73.8038 985.552 74.1656 986.042 74.371C986.532 74.5765 987.077 74.6141 987.59 74.4782C988.11 74.308 988.55 73.9477 989.065 73.7675C989.58 73.5923 990.275 73.6774 990.5 74.1779C990.72 74.6534 990.39 75.2289 990.555 75.7294C990.8 76.4852 991.945 76.5452 992.345 77.2359C992.463 77.5094 992.49 77.8134 992.422 78.1034C992.355 78.3934 992.196 78.6541 991.97 78.8475C991.51 79.2231 991.002 79.5361 990.46 79.7784C988.78 80.7144 987.585 82.311 986.115 83.5522C984.645 84.7984 982.57 85.7043 980.82 84.9085C981.235 82.7914 978.72 81.2399 978.255 79.1328C978.1 78.4371 978.18 77.7014 977.965 77.0257C977.65 76.0447 976.78 75.3741 976.07 74.6333C975.208 73.724 974.535 72.6511 974.093 71.4778C973.651 70.3046 973.448 69.0546 973.495 67.8015C973.535 66.9307 973.695 66.0448 973.495 65.194C973.3 64.3481 972.595 63.5273 971.725 63.5623C969.74 63.6524 967.235 63.8026 966.195 62.1059C965.82 61.5003 965.66 60.6144 966.2 60.149C966.58 59.8236 967.14 59.8537 967.635 59.9037C969.13 60.0489 970.62 60.199 972.115 60.3442C973.16 60.4443 974.29 60.5293 975.19 59.9838C976.09 59.4383 976.48 57.9818 975.645 57.3362C975.04 56.8657 973.95 56.8907 973.77 56.145C973.625 55.5194 974.315 54.8137 973.94 54.2882C973.675 53.9178 973.075 54.0179 972.71 54.2982C972.392 54.6292 972.045 54.9323 971.675 55.2041C970.96 55.5744 970.11 55.2191 969.34 54.9788C968.57 54.7386 967.54 54.7186 967.17 55.4343C966.75 56.2301 967.535 57.2811 967.125 58.0819C966.575 59.138 964.725 58.5374 963.955 59.4483C963.075 60.4893 964.555 62.0508 964.26 63.3822C963.88 63.5707 963.458 63.6574 963.035 63.6337C962.612 63.61 962.202 63.4768 961.845 63.247C961.495 63.0088 961.217 62.6801 961.039 62.2958C960.861 61.9115 960.791 61.4861 960.835 61.0649C960.905 60.4643 961.22 59.8487 961.01 59.2831C960.784 58.8463 960.41 58.5041 959.955 58.3172C958.505 57.5114 957.055 56.7089 955.605 55.9098C955.2 56.6605 955.71 57.5864 956.35 58.152C956.985 58.7125 957.785 59.138 958.205 59.8787C958.471 60.3921 958.531 60.9877 958.373 61.544C958.215 62.1002 957.851 62.5751 957.355 62.8717C957.292 62.9149 957.221 62.944 957.146 62.957C957.071 62.9699 956.994 62.9664 956.92 62.9467C956.851 62.906 956.79 62.8518 956.742 62.7874C956.694 62.7229 956.659 62.6495 956.64 62.5714C955.875 60.6044 954.72 58.6675 952.88 57.6415C951.035 56.6105 948.39 56.8257 947.18 58.5524C946.895 58.9628 946.7 59.4333 946.45 59.8687C945.125 62.176 942.275 63.2671 939.615 63.197C939.355 63.2137 939.096 63.1527 938.87 63.0218C938.44 62.7265 938.46 62.0959 938.525 61.5754C938.62 60.8397 938.71 60.1089 938.805 59.3732C938.807 58.924 938.981 58.4926 939.29 58.167C939.785 57.7766 940.495 58.0219 941.125 58.0119C941.601 57.9906 942.058 57.823 942.435 57.5319C942.811 57.2408 943.089 56.8403 943.23 56.3852C943.357 55.926 943.356 55.4409 943.227 54.9822C943.099 54.5235 942.847 54.1087 942.5 53.7827C942.215 53.5124 941.83 53.1721 941.98 52.8067C942.041 52.7061 942.123 52.6199 942.221 52.5542C942.318 52.4885 942.429 52.4449 942.545 52.4263C943.67 52.101 944.865 52.0159 945.97 51.6255C947.08 51.2401 948.155 50.4494 948.42 49.3032C948.5 48.9529 948.535 48.5275 948.85 48.3523C949.009 48.2884 949.179 48.2545 949.35 48.2522C949.951 48.1659 950.499 47.8578 950.884 47.3883C951.27 46.9187 951.467 46.3218 951.435 45.7147C951.965 45.3443 952.71 45.6196 953.225 46.015C953.735 46.4104 954.19 46.9309 954.815 47.101C955.98 47.4214 957.105 46.3853 958.315 46.3803C958.825 46.3803 959.35 46.5605 959.825 46.3853C960.31 46.2101 960.6 45.7297 960.97 45.3743C961.345 45.014 961.995 44.7988 962.34 45.1841C962.24 44.4584 962.145 43.7377 962.045 43.017C962.634 43.1655 963.248 43.186 963.846 43.0773C964.444 42.9685 965.011 42.7329 965.51 42.3864C964.25 41.9609 962.995 41.5355 961.735 41.1101C961.603 41.0774 961.481 41.012 961.38 40.9199C961.105 40.6246 961.38 40.1642 961.6 39.8288C962.135 39.023 962.225 37.6967 961.345 37.2963C960.745 37.021 960.06 37.3514 959.485 37.6717C958.565 38.1822 957.645 38.6977 956.725 39.2082C956.64 39.7337 957.28 40.034 957.675 40.3844C957.916 40.5981 958.086 40.8798 958.164 41.1923C958.242 41.5048 958.223 41.8336 958.11 42.1353C957.998 42.4371 957.797 42.6976 957.533 42.8827C957.27 43.0677 956.957 43.1686 956.635 43.1721C956.816 43.4089 956.942 43.6833 957.004 43.9752C957.065 44.267 957.061 44.569 956.99 44.8588C956.375 44.9039 955.755 44.9489 955.135 44.9939C955.032 45.0145 954.926 45.0145 954.823 44.9938C954.72 44.9732 954.622 44.9324 954.535 44.8738C954.335 44.6986 954.365 44.3883 954.315 44.1281C954.233 43.817 954.059 43.5378 953.817 43.3263C953.574 43.1149 953.274 42.981 952.955 42.9419C952.318 42.8702 951.673 42.9298 951.06 43.1171C950.794 43.2111 950.502 43.204 950.24 43.0971C950.092 42.9987 949.979 42.8547 949.92 42.6867C949.811 42.3435 949.793 41.978 949.866 41.6255C949.94 41.273 950.103 40.9455 950.34 40.6747C950.82 40.1409 951.349 39.6533 951.92 39.2182C953.214 38.0844 954.165 36.6108 954.665 34.964C955.685 34.5336 956.74 33.953 957.765 33.5226C958.589 33.1403 959.453 32.8499 960.34 32.6567C961.175 32.529 962.022 32.4888 962.865 32.5366C964.015 32.5566 965.17 32.5766 966.32 32.6017C967.347 32.5585 968.372 32.7061 969.345 33.0371C970.29 33.4275 971.125 34.2733 971.19 35.2943C971.21 35.4107 971.199 35.5301 971.16 35.6414C971.121 35.7526 971.054 35.8519 970.965 35.93C970.832 36.0034 970.682 36.0381 970.53 36.0301C969.575 36.0601 969.17 36.3003 968.215 36.3354C968.82 36.981 969.5 37.6617 970.38 37.7768C971.93 37.977 973.045 36.3704 973.76 34.974C973.786 35.3294 973.949 35.6608 974.215 35.8974C974.482 36.134 974.83 36.257 975.185 36.2403C975.568 36.1743 975.934 36.0313 976.26 35.8199C979.336 34.1374 982.781 33.2465 986.285 33.2273C986.251 32.9617 986.316 32.6928 986.469 32.4727C986.621 32.2526 986.85 32.097 987.11 32.0361C987.825 31.896 988.465 32.5116 988.81 33.1522C989.15 33.7928 989.365 34.5336 989.915 35.014C990.46 35.4945 991.515 35.4695 991.73 34.7788C991.94 34.1132 991.245 33.5426 990.67 33.1472C990.09 32.7568 989.485 32.0311 989.875 31.4505C992.815 30.7948 995.78 30.1442 998.795 30.0141C999.308 30.0296 999.818 29.9411 1000.3 29.7538C1000.53 29.6536 1000.73 29.4781 1000.85 29.2546C1000.98 29.0311 1001.03 28.772 1001 28.5176C1000.34 28.6713 999.649 28.6258 999.016 28.387C998.384 28.1482 997.838 27.7268 997.445 27.1762C1000.54 26.921 1003.78 26.6958 1006.76 27.3915L1009.36 29.6037C1008.87 30.1192 1008.21 30.6047 1008.57 31.1202C1008.68 31.2386 1008.83 31.3284 1008.99 31.3831C1009.14 31.4377 1009.31 31.4556 1009.48 31.4355C1010.11 31.4455 1010.74 31.4605 1011.37 31.4605C1024.3 43.8434 1032.26 60.5346 1033.75 78.3871C1032.7 78.3471 1031.73 79.6784 1031.87 80.8395C1032.03 82.1859 1033 83.2669 1033.69 84.4281C1033.81 84.6168 1033.91 84.8124 1034 85.0137L1033.91 88.3169Z" fill="#E0E7FA"/>
<g filter="url(#filter0_di)">
<path d="M855.136 100.576C852.928 100.576 850.912 100.208 849.088 99.472C847.264 98.736 845.712 97.648 844.432 96.208C843.152 94.736 842.16 92.928 841.456 90.784C840.752 88.608 840.4 86.096 840.4 83.248C840.4 80.4 840.752 77.904 841.456 75.76C842.16 73.584 843.152 71.776 844.432 70.336C845.712 68.864 847.264 67.76 849.088 67.024C850.912 66.288 852.928 65.92 855.136 65.92C857.344 65.92 859.36 66.288 861.184 67.024C863.008 67.76 864.56 68.864 865.84 70.336C867.12 71.776 868.112 73.584 868.816 75.76C869.52 77.904 869.872 80.4 869.872 83.248C869.872 86.096 869.52 88.608 868.816 90.784C868.112 92.928 867.12 94.736 865.84 96.208C864.56 97.648 863.008 98.736 861.184 99.472C859.36 100.208 857.344 100.576 855.136 100.576ZM855.136 94.096C857.344 94.096 859.056 93.376 860.272 91.936C861.52 90.496 862.144 88.432 862.144 85.744V80.752C862.144 78.064 861.52 76 860.272 74.56C859.056 73.12 857.344 72.4 855.136 72.4C852.928 72.4 851.2 73.12 849.952 74.56C848.736 76 848.128 78.064 848.128 80.752V85.744C848.128 88.432 848.736 90.496 849.952 91.936C851.2 93.376 852.928 94.096 855.136 94.096ZM882.874 66.496V87.04C882.874 89.408 883.338 91.184 884.266 92.368C885.194 93.52 886.746 94.096 888.922 94.096C891.098 94.096 892.65 93.52 893.578 92.368C894.506 91.184 894.97 89.408 894.97 87.04V66.496H902.074V86.272C902.074 88.736 901.834 90.88 901.354 92.704C900.906 94.496 900.154 95.984 899.098 97.168C898.042 98.32 896.682 99.184 895.018 99.76C893.354 100.304 891.322 100.576 888.922 100.576C886.522 100.576 884.49 100.304 882.826 99.76C881.162 99.184 879.802 98.32 878.746 97.168C877.69 95.984 876.922 94.496 876.442 92.704C875.994 90.88 875.77 88.736 875.77 86.272V66.496H882.874ZM916.586 100H909.29V66.496H925.178C926.714 66.496 928.106 66.752 929.354 67.264C930.602 67.776 931.658 68.512 932.522 69.472C933.418 70.4 934.106 71.52 934.586 72.832C935.066 74.144 935.306 75.6 935.306 77.2C935.306 79.472 934.794 81.456 933.77 83.152C932.778 84.848 931.258 86.08 929.21 86.848L935.786 100H927.674L921.818 87.712H916.586V100ZM924.266 81.568C925.354 81.568 926.202 81.296 926.81 80.752C927.45 80.176 927.77 79.344 927.77 78.256V76.144C927.77 75.056 927.45 74.24 926.81 73.696C926.202 73.12 925.354 72.832 924.266 72.832H916.586V81.568H924.266ZM966.945 72.976V100H959.649V72.976H950.577V66.496H976.017V72.976H966.945ZM981.009 100V66.496H1003.81V72.976H988.305V79.84H1001.6V86.272H988.305V93.52H1003.81V100H981.009ZM1030.8 100L1028.4 92.032H1017.22L1014.82 100H1007.43L1018.47 66.496H1027.49L1038.39 100H1030.8ZM1022.88 73.12H1022.64L1018.95 85.84H1026.63L1022.88 73.12ZM1068.08 78.016H1067.94L1065.49 82.912L1058.96 94.768L1052.58 82.96L1050.03 77.68H1049.89V100H1043.02V66.496H1050.75L1058.96 82.192H1059.06L1067.17 66.496H1074.94V100H1068.08V78.016Z" fill="white"/>
</g>
<path d="M1337.17 57.9157H1338.09C1338.28 57.9157 1338.75 57.2457 1338.75 57.0534V56.2747C1338.75 55.6671 1339.5 54 1340.17 54C1340.84 54 1341.6 55.6671 1341.6 56.2747V57.0534C1341.6 57.3274 1341.83 57.9157 1342.12 57.9157H1343.04C1343.71 57.9157 1345.54 58.3872 1345.54 58.9949C1345.54 59.6026 1343.71 60.0741 1343.04 60.0741H1341.94C1341.59 60.0741 1341.6 60.3997 1341.6 60.5655V61.6041C1341.6 62.2118 1340.84 63.8788 1340.17 63.8788C1339.5 63.8788 1338.75 62.2118 1338.75 61.6041V60.5655C1338.75 60.4278 1338.44 60.0741 1338.27 60.0741H1337.17C1336.5 60.0741 1334.67 59.6026 1334.67 58.9949C1334.67 58.3872 1336.5 57.9157 1337.17 57.9157Z" fill="#2196F3"/>
<path opacity="0.5" d="M1179.77 33.545C1177.69 33.545 1176 31.856 1176 29.7725C1176 27.689 1177.69 26 1179.77 26C1181.85 26 1183.54 27.689 1183.54 29.7725C1183.54 31.856 1181.85 33.545 1179.77 33.545Z" fill="#4D8AF0"/>
<path d="M1235.53 91.0942C1233.87 91.0942 1232.52 89.9529 1232.52 88.5451C1232.52 87.1373 1233.87 85.9961 1235.53 85.9961C1237.2 85.9961 1238.54 87.1373 1238.54 88.5451C1238.54 89.9529 1237.2 91.0942 1235.53 91.0942Z" fill="#64B5F6"/>
<path d="M1300.15 18.7769C1299.39 18.7769 1298.76 18.1544 1298.76 17.3865C1298.76 16.6186 1299.39 15.9961 1300.15 15.9961C1300.92 15.9961 1301.54 16.6186 1301.54 17.3865C1301.54 18.1544 1300.92 18.7769 1300.15 18.7769Z" fill="#82A9FF"/>
<path d="M1134.54 158C1133.44 158 1132.54 157.328 1132.54 156.5C1132.54 155.672 1133.44 155 1134.54 155C1135.65 155 1136.54 155.672 1136.54 156.5C1136.54 157.328 1135.65 158 1134.54 158Z" fill="#64B5F6"/>
<path d="M1462.89 74.4638C1461.97 74.4638 1461.23 73.7212 1461.23 72.8051C1461.23 71.8891 1461.97 71.1465 1462.89 71.1465C1463.8 71.1465 1464.54 71.8891 1464.54 72.8051C1464.54 73.7212 1463.8 74.4638 1462.89 74.4638Z" fill="#64B5F6"/>
<path d="M1511.71 25.2694H1512.46C1512.62 25.2694 1513 24.7351 1513 24.5817V23.9607C1513 23.476 1513.61 22.1465 1514.16 22.1465C1514.71 22.1465 1515.32 23.476 1515.32 23.9607V24.5817C1515.32 24.8002 1515.51 25.2694 1515.75 25.2694H1516.5C1517.05 25.2694 1518.54 25.6455 1518.54 26.1301C1518.54 26.6148 1517.05 26.9909 1516.5 26.9909H1515.6C1515.32 26.9909 1515.32 27.2505 1515.32 27.3828V28.2111C1515.32 28.6958 1514.71 30.0253 1514.16 30.0253C1513.61 30.0253 1513 28.6958 1513 28.2111V27.3828C1513 27.273 1512.75 26.9909 1512.61 26.9909H1511.71C1511.16 26.9909 1509.67 26.6148 1509.67 26.1301C1509.67 25.6455 1511.16 25.2694 1511.71 25.2694Z" fill="#2196F3"/>
<path d="M1542.53 109.098C1540.87 109.098 1539.52 107.957 1539.52 106.549C1539.52 105.141 1540.87 104 1542.53 104C1544.2 104 1545.54 105.141 1545.54 106.549C1545.54 107.957 1544.2 109.098 1542.53 109.098Z" fill="#64B5F6"/>
<path d="M1718.62 28.0172H1719.05C1719.14 28.0172 1719.4 27.675 1719.4 27.5758V27.1739C1719.4 26.8603 1719.78 26 1720.1 26C1720.41 26 1720.8 26.8603 1720.8 27.1739V27.5758C1720.8 27.7171 1720.8 28.0172 1720.94 28.0172H1721.37C1721.68 28.0172 1722.54 28.2279 1722.54 28.5415C1722.54 28.8551 1721.68 29.0659 1721.37 29.0659H1720.85C1720.69 29.0659 1720.8 29.3026 1720.8 29.3882V29.9242C1720.8 30.2378 1720.41 31.0981 1720.1 31.0981C1719.78 31.0981 1719.4 30.2378 1719.4 29.9242V29.3882C1719.4 29.3172 1719.21 29.0659 1719.14 29.0659H1718.62C1718.31 29.0659 1717.45 28.8552 1717.45 28.5415C1717.45 28.2279 1718.31 28.0172 1718.62 28.0172Z" fill="#1976D2"/>
<path d="M1628.62 44.0172H1629.05C1629.14 44.0172 1629.4 43.675 1629.4 43.5758V43.1739C1629.4 42.8603 1629.78 42 1630.1 42C1630.41 42 1630.8 42.8603 1630.8 43.1739V43.5758C1630.8 43.7171 1630.8 44.0172 1630.94 44.0172H1631.37C1631.68 44.0172 1632.54 44.2279 1632.54 44.5415C1632.54 44.8551 1631.68 45.0659 1631.37 45.0659H1630.85C1630.69 45.0659 1630.8 45.3026 1630.8 45.3882V45.9242C1630.8 46.2378 1630.41 47.0981 1630.1 47.0981C1629.78 47.0981 1629.4 46.2378 1629.4 45.9242V45.3882C1629.4 45.3172 1629.21 45.0659 1629.14 45.0659H1628.62C1628.31 45.0659 1627.45 44.8552 1627.45 44.5415C1627.45 44.2279 1628.31 44.0172 1628.62 44.0172Z" fill="#1976D2"/>
<path d="M1842.16 95.2211C1840.75 95.2211 1839.61 94.0799 1839.61 92.6721C1839.61 91.2643 1840.75 90.123 1842.16 90.123C1843.57 90.123 1844.71 91.2643 1844.71 92.6721C1844.71 94.0799 1843.57 95.2211 1842.16 95.2211Z" fill="#64B5F6"/>
<path d="M1764.53 81.0981C1762.87 81.0981 1761.52 79.9568 1761.52 78.549C1761.52 77.1412 1762.87 76 1764.53 76C1766.2 76 1767.54 77.1412 1767.54 78.549C1767.54 79.9568 1766.2 81.0981 1764.53 81.0981Z" fill="#64B5F6"/>
<path d="M1835.77 25.4903H1836.51C1836.67 25.4903 1837.04 24.8931 1837.04 24.7218V24.0276C1837.04 23.486 1837.65 22 1838.2 22C1838.74 22 1839.35 23.486 1839.35 24.0276V24.7218C1839.35 24.966 1839.54 25.4903 1839.77 25.4903H1840.52C1841.06 25.4903 1842.54 25.9107 1842.54 26.4523C1842.54 26.994 1841.06 27.4143 1840.52 27.4143H1839.63C1839.34 27.4143 1839.35 27.7046 1839.35 27.8523V28.7781C1839.35 29.3198 1838.74 30.8058 1838.2 30.8058C1837.65 30.8058 1837.04 29.3198 1837.04 28.7781V27.8523C1837.04 27.7296 1836.79 27.4143 1836.66 27.4143H1835.77C1835.22 27.4143 1833.74 26.994 1833.74 26.4523C1833.74 25.9106 1835.22 25.4903 1835.77 25.4903Z" fill="#2196F3"/>
<path d="M589.374 58.9118H588.451C588.263 58.9118 587.798 58.2418 587.798 58.0495V57.2708C587.798 56.6632 587.041 54.9961 586.372 54.9961C585.703 54.9961 584.946 56.6632 584.946 57.2708V58.0495C584.946 58.3235 584.713 58.9118 584.428 58.9118H583.505C582.836 58.9118 581 59.3833 581 59.991C581 60.5987 582.836 61.0702 583.505 61.0702H584.606C584.954 61.0702 584.946 61.3958 584.946 61.5616V62.6002C584.946 63.2079 585.703 64.8749 586.372 64.8749C587.041 64.8749 587.798 63.2079 587.798 62.6002V61.5616C587.798 61.4239 588.104 61.0702 588.273 61.0702H589.374C590.043 61.0702 591.879 60.5987 591.879 59.991C591.879 59.3833 590.043 58.9118 589.374 58.9118Z" fill="#2196F3"/>
<path d="M965.374 175.912H964.451C964.263 175.912 963.798 175.242 963.798 175.05V174.271C963.798 173.663 963.041 171.996 962.372 171.996C961.703 171.996 960.946 173.663 960.946 174.271V175.05C960.946 175.324 960.713 175.912 960.428 175.912H959.505C958.836 175.912 957 176.383 957 176.991C957 177.599 958.836 178.07 959.505 178.07H960.606C960.954 178.07 960.946 178.396 960.946 178.562V179.6C960.946 180.208 961.703 181.875 962.372 181.875C963.041 181.875 963.798 180.208 963.798 179.6V178.562C963.798 178.424 964.104 178.07 964.273 178.07H965.374C966.043 178.07 967.879 177.599 967.879 176.991C967.879 176.383 966.043 175.912 965.374 175.912Z" fill="#64B5F6"/>
<path d="M649.659 26.9961C651.127 26.9961 652.317 25.8768 652.317 24.4961C652.317 23.1154 651.127 21.9961 649.659 21.9961C648.19 21.9961 647 23.1154 647 24.4961C647 25.8768 648.19 26.9961 649.659 26.9961Z" fill="#64B5F6"/>
<path d="M681.013 102.09C682.676 102.09 684.025 100.949 684.025 99.5412C684.025 98.1334 682.676 96.9922 681.013 96.9922C679.349 96.9922 678 98.1334 678 99.5412C678 100.949 679.349 102.09 681.013 102.09Z" fill="#64B5F6"/>
<path d="M840.013 134.09C841.676 134.09 843.025 132.949 843.025 131.541C843.025 130.133 841.676 128.992 840.013 128.992C838.349 128.992 837 130.133 837 131.541C837 132.949 838.349 134.09 840.013 134.09Z" fill="#64B5F6"/>
<path d="M1058.01 144.09C1059.68 144.09 1061.03 142.949 1061.03 141.541C1061.03 140.133 1059.68 138.992 1058.01 138.992C1056.35 138.992 1055 140.133 1055 141.541C1055 142.949 1056.35 144.09 1058.01 144.09Z" fill="#2F5FA3"/>
<path d="M480.924 5.01328H480.492C480.404 5.01328 480.146 4.67106 480.146 4.57185V4.16999C480.146 3.8564 479.761 2.99609 479.447 2.99609C479.133 2.99609 478.748 3.8564 478.748 4.16999V4.57185C478.748 4.71324 478.74 5.01328 478.606 5.01328H478.174C477.86 5.01328 477 5.22403 477 5.53763C477 5.85122 477.86 6.06197 478.174 6.06197H478.69C478.853 6.06197 478.748 6.29873 478.748 6.38427V6.92027C478.748 7.23388 479.133 8.09417 479.447 8.09417C479.761 8.09417 480.146 7.23389 480.146 6.92027V6.38428C480.146 6.31326 480.329 6.06198 480.408 6.06198H480.924C481.238 6.06198 482.098 5.85125 482.098 5.53764C482.098 5.22403 481.238 5.01328 480.924 5.01328Z" fill="#1976D2"/>
<path d="M463.659 95.4599C464.575 95.4599 465.317 94.7173 465.317 93.8012C465.317 92.8852 464.575 92.1426 463.659 92.1426C462.743 92.1426 462 92.8852 462 93.8012C462 94.7173 462.743 95.4599 463.659 95.4599Z" fill="#64B5F6"/>
<path d="M858.013 19.0942C859.676 19.0942 861.025 17.9529 861.025 16.5451C861.025 15.1373 859.676 13.9961 858.013 13.9961C856.349 13.9961 855 15.1373 855 16.5451C855 17.9529 856.349 19.0942 858.013 19.0942Z" fill="#1976D2"/>
<path d="M394.065 47.2655H393.396C393.26 47.2655 392.923 46.7312 392.923 46.5778V45.9568C392.923 45.4721 392.375 44.1426 391.89 44.1426C391.406 44.1426 390.858 45.4721 390.858 45.9568V46.5778C390.858 46.7963 390.689 47.2655 390.483 47.2655H389.814C389.33 47.2655 388 47.6416 388 48.1262C388 48.6109 389.33 48.987 389.814 48.987H390.611C390.864 48.987 390.858 49.2466 390.858 49.3788V50.2072C390.858 50.6919 391.406 52.0214 391.89 52.0214C392.375 52.0214 392.923 50.6919 392.923 50.2072V49.3788C392.923 49.2691 393.145 48.987 393.267 48.987H394.065C394.549 48.987 395.879 48.6109 395.879 48.1262C395.879 47.6416 394.549 47.2655 394.065 47.2655Z" fill="#2196F3"/>
<path d="M154.39 80.7769C155.158 80.7769 155.781 80.1544 155.781 79.3865C155.781 78.6186 155.158 77.9961 154.39 77.9961C153.622 77.9961 153 78.6186 153 79.3865C153 80.1544 153.622 80.7769 154.39 80.7769Z" fill="#82A9FF"/>
<path d="M289.848 29.8052H288.983C288.807 29.8052 288.371 28.983 288.371 28.7471V27.7915C288.371 27.0458 287.662 25 287.035 25C286.408 25 285.698 27.0458 285.698 27.7915V28.7471C285.698 29.0833 285.48 29.8052 285.213 29.8052H284.348C283.721 29.8052 282 30.3839 282 31.1296C282 31.8753 283.721 32.454 284.348 32.454H285.379C285.706 32.454 285.698 32.8535 285.698 33.057V34.3316C285.698 35.0773 286.408 37.1231 287.035 37.1231C287.662 37.1231 288.371 35.0773 288.371 34.3316V33.057C288.371 32.8881 288.658 32.454 288.817 32.454H289.848C290.476 32.454 292.196 31.8753 292.196 31.1296C292.196 30.3839 290.476 29.8052 289.848 29.8052Z" fill="url(#paint18_linear)"/>
<path d="M25.549 27.1672C26.9568 27.1672 28.0981 26.2335 28.0981 25.0817C28.0981 23.9298 26.9568 22.9961 25.549 22.9961C24.1412 22.9961 23 23.9298 23 25.0817C23 26.2335 24.1412 27.1672 25.549 27.1672Z" fill="#82A9FF"/>
<path d="M176.549 24.1672C177.957 24.1672 179.098 23.2335 179.098 22.0817C179.098 20.9298 177.957 19.9961 176.549 19.9961C175.141 19.9961 174 20.9298 174 22.0817C174 23.2335 175.141 24.1672 176.549 24.1672Z" fill="#82A9FF"/>
<path d="M100.778 46.4864H100.031C99.8789 46.4864 99.5026 45.8892 99.5026 45.7178V45.0237C99.5026 44.4821 98.8899 42.9961 98.3482 42.9961C97.8065 42.9961 97.1938 44.4821 97.1938 45.0237V45.7178C97.1938 45.9621 97.0053 46.4864 96.7747 46.4864H96.0276C95.486 46.4864 94 46.9068 94 47.4484C94 47.9901 95.486 48.4104 96.0276 48.4104H96.9186C97.2008 48.4104 97.1938 48.7006 97.1938 48.8484V49.7742C97.1938 50.3159 97.8065 51.8019 98.3482 51.8019C98.8899 51.8019 99.5026 50.3159 99.5026 49.7742V48.8484C99.5026 48.7257 99.7503 48.4104 99.8871 48.4104H100.778C101.32 48.4104 102.806 47.9901 102.806 47.4484C102.806 46.9067 101.32 46.4864 100.778 46.4864Z" fill="#2196F3"/>
<path d="M765.421 35.3027H764.714C764.569 35.3027 764.213 34.7369 764.213 34.5746V33.917C764.213 33.4039 763.633 31.9961 763.119 31.9961C762.606 31.9961 762.026 33.4039 762.026 33.917V34.5746C762.026 34.806 761.847 35.3027 761.629 35.3027H760.921C760.408 35.3027 759 35.7009 759 36.2141C759 36.7272 760.408 37.1255 760.921 37.1255H761.765C762.032 37.1255 762.026 37.4004 762.026 37.5404V38.4175C762.026 38.9307 762.606 40.3384 763.119 40.3384C763.633 40.3384 764.213 38.9307 764.213 38.4175V37.5404C764.213 37.4242 764.448 37.1255 764.577 37.1255H765.421C765.935 37.1255 767.342 36.7273 767.342 36.2141C767.342 35.7009 765.935 35.3027 765.421 35.3027Z" fill="#2196F3"/>
<path d="M1060.42 26.3027H1059.71C1059.57 26.3027 1059.21 25.7369 1059.21 25.5746V24.917C1059.21 24.4039 1058.63 22.9961 1058.12 22.9961C1057.61 22.9961 1057.03 24.4039 1057.03 24.917V25.5746C1057.03 25.806 1056.85 26.3027 1056.63 26.3027H1055.92C1055.41 26.3027 1054 26.7009 1054 27.2141C1054 27.7272 1055.41 28.1255 1055.92 28.1255H1056.77C1057.03 28.1255 1057.03 28.4004 1057.03 28.5404V29.4175C1057.03 29.9307 1057.61 31.3384 1058.12 31.3384C1058.63 31.3384 1059.21 29.9307 1059.21 29.4175V28.5404C1059.21 28.4242 1059.45 28.1255 1059.58 28.1255H1060.42C1060.93 28.1255 1062.34 27.7273 1062.34 27.2141C1062.34 26.7009 1060.93 26.3027 1060.42 26.3027Z" fill="#2196F3"/>
<path d="M1128.42 81.3027H1127.71C1127.57 81.3027 1127.21 80.7369 1127.21 80.5746V79.917C1127.21 79.4039 1126.63 77.9961 1126.12 77.9961C1125.61 77.9961 1125.03 79.4039 1125.03 79.917V80.5746C1125.03 80.806 1124.85 81.3027 1124.63 81.3027H1123.92C1123.41 81.3027 1122 81.7009 1122 82.2141C1122 82.7272 1123.41 83.1255 1123.92 83.1255H1124.77C1125.03 83.1255 1125.03 83.4004 1125.03 83.5404V84.4175C1125.03 84.9307 1125.61 86.3384 1126.12 86.3384C1126.63 86.3384 1127.21 84.9307 1127.21 84.4175V83.5404C1127.21 83.4242 1127.45 83.1255 1127.58 83.1255H1128.42C1128.93 83.1255 1130.34 82.7273 1130.34 82.2141C1130.34 81.7009 1128.93 81.3027 1128.42 81.3027Z" fill="#2196F3"/>
<path d="M763.421 166.303H762.714C762.569 166.303 762.213 165.737 762.213 165.575V164.917C762.213 164.404 761.633 162.996 761.119 162.996C760.606 162.996 760.026 164.404 760.026 164.917V165.575C760.026 165.806 759.847 166.303 759.629 166.303H758.921C758.408 166.303 757 166.701 757 167.214C757 167.727 758.408 168.125 758.921 168.125H759.765C760.032 168.125 760.026 168.4 760.026 168.54V169.417C760.026 169.931 760.606 171.338 761.119 171.338C761.633 171.338 762.213 169.931 762.213 169.417V168.54C762.213 168.424 762.448 168.125 762.577 168.125H763.421C763.935 168.125 765.342 167.727 765.342 167.214C765.342 166.701 763.935 166.303 763.421 166.303Z" fill="#2196F3"/>
<defs>
<filter id="filter0_di" x="834.4" y="65.9199" width="246.544" height="46.656" filterUnits="userSpaceOnUse" color-interpolation-filters="sRGB">
<feFlood flood-opacity="0" result="BackgroundImageFix"/>
<feColorMatrix in="SourceAlpha" type="matrix" values="0 0 0 0 0 0 0 0 0 0 0 0 0 0 0 0 0 0 127 0"/>
<feOffset dy="6"/>
<feGaussianBlur stdDeviation="3"/>
<feColorMatrix type="matrix" values="0 0 0 0 0 0 0 0 0 0 0 0 0 0 0 0 0 0 0.25 0"/>
<feBlend mode="normal" in2="BackgroundImageFix" result="effect1_dropShadow"/>
<feBlend mode="normal" in="SourceGraphic" in2="effect1_dropShadow" result="shape"/>
<feColorMatrix in="SourceAlpha" type="matrix" values="0 0 0 0 0 0 0 0 0 0 0 0 0 0 0 0 0 0 127 0" result="hardAlpha"/>
<feOffset dy="3"/>
<feGaussianBlur stdDeviation="1.5"/>
<feComposite in2="hardAlpha" operator="arithmetic" k2="-1" k3="1"/>
<feColorMatrix type="matrix" values="0 0 0 0 0 0 0 0 0 0 0 0 0 0 0 0 0 0 0.25 0"/>
<feBlend mode="normal" in2="shape" result="effect2_innerShadow"/>
</filter>
<linearGradient id="paint0_linear" x1="985.282" y1="275.16" x2="984.829" y2="275.16" gradientUnits="userSpaceOnUse">
<stop stop-color="#808080" stop-opacity="0.25"/>
<stop offset="0.54" stop-color="#808080" stop-opacity="0.12"/>
<stop offset="1" stop-color="#808080" stop-opacity="0.1"/>
</linearGradient>
<linearGradient id="paint1_linear" x1="984.631" y1="275.758" x2="984.175" y2="275.758" gradientUnits="userSpaceOnUse">
<stop stop-color="#808080" stop-opacity="0.25"/>
<stop offset="0.54" stop-color="#808080" stop-opacity="0.12"/>
<stop offset="1" stop-color="#808080" stop-opacity="0.1"/>
</linearGradient>
<linearGradient id="paint2_linear" x1="984.631" y1="275.16" x2="984.175" y2="275.16" gradientUnits="userSpaceOnUse">
<stop stop-color="#808080" stop-opacity="0.25"/>
<stop offset="0.54" stop-color="#808080" stop-opacity="0.12"/>
<stop offset="1" stop-color="#808080" stop-opacity="0.1"/>
</linearGradient>
<linearGradient id="paint3_linear" x1="1290.52" y1="270.721" x2="1290.06" y2="270.721" gradientUnits="userSpaceOnUse">
<stop stop-color="#808080" stop-opacity="0.25"/>
<stop offset="0.54" stop-color="#808080" stop-opacity="0.12"/>
<stop offset="1" stop-color="#808080" stop-opacity="0.1"/>
</linearGradient>
<linearGradient id="paint4_linear" x1="1289.87" y1="271.28" x2="1289.41" y2="271.28" gradientUnits="userSpaceOnUse">
<stop stop-color="#808080" stop-opacity="0.25"/>
<stop offset="0.54" stop-color="#808080" stop-opacity="0.12"/>
<stop offset="1" stop-color="#808080" stop-opacity="0.1"/>
</linearGradient>
<linearGradient id="paint5_linear" x1="1289.87" y1="270.721" x2="1289.41" y2="270.721" gradientUnits="userSpaceOnUse">
<stop stop-color="#808080" stop-opacity="0.25"/>
<stop offset="0.54" stop-color="#808080" stop-opacity="0.12"/>
<stop offset="1" stop-color="#808080" stop-opacity="0.1"/>
</linearGradient>
<linearGradient id="paint6_linear" x1="1595.75" y1="270.721" x2="1595.3" y2="270.721" gradientUnits="userSpaceOnUse">
<stop stop-color="#808080" stop-opacity="0.25"/>
<stop offset="0.54" stop-color="#808080" stop-opacity="0.12"/>
<stop offset="1" stop-color="#808080" stop-opacity="0.1"/>
</linearGradient>
<linearGradient id="paint7_linear" x1="1595.1" y1="271.28" x2="1594.64" y2="271.28" gradientUnits="userSpaceOnUse">
<stop stop-color="#808080" stop-opacity="0.25"/>
<stop offset="0.54" stop-color="#808080" stop-opacity="0.12"/>
<stop offset="1" stop-color="#808080" stop-opacity="0.1"/>
</linearGradient>
<linearGradient id="paint8_linear" x1="1595.1" y1="270.721" x2="1594.64" y2="270.721" gradientUnits="userSpaceOnUse">
<stop stop-color="#808080" stop-opacity="0.25"/>
<stop offset="0.54" stop-color="#808080" stop-opacity="0.12"/>
<stop offset="1" stop-color="#808080" stop-opacity="0.1"/>
</linearGradient>
<linearGradient id="paint9_linear" x1="935.044" y1="275.16" x2="935.496" y2="275.16" gradientUnits="userSpaceOnUse">
<stop stop-color="#808080" stop-opacity="0.25"/>
<stop offset="0.54" stop-color="#808080" stop-opacity="0.12"/>
<stop offset="1" stop-color="#808080" stop-opacity="0.1"/>
</linearGradient>
<linearGradient id="paint10_linear" x1="935.694" y1="275.758" x2="936.151" y2="275.758" gradientUnits="userSpaceOnUse">
<stop stop-color="#808080" stop-opacity="0.25"/>
<stop offset="0.54" stop-color="#808080" stop-opacity="0.12"/>
<stop offset="1" stop-color="#808080" stop-opacity="0.1"/>
</linearGradient>
<linearGradient id="paint11_linear" x1="935.694" y1="275.16" x2="936.151" y2="275.16" gradientUnits="userSpaceOnUse">
<stop stop-color="#808080" stop-opacity="0.25"/>
<stop offset="0.54" stop-color="#808080" stop-opacity="0.12"/>
<stop offset="1" stop-color="#808080" stop-opacity="0.1"/>
</linearGradient>
<linearGradient id="paint12_linear" x1="630.044" y1="270.721" x2="630.496" y2="270.721" gradientUnits="userSpaceOnUse">
<stop stop-color="#808080" stop-opacity="0.25"/>
<stop offset="0.54" stop-color="#808080" stop-opacity="0.12"/>
<stop offset="1" stop-color="#808080" stop-opacity="0.1"/>
</linearGradient>
<linearGradient id="paint13_linear" x1="630.694" y1="271.28" x2="631.151" y2="271.28" gradientUnits="userSpaceOnUse">
<stop stop-color="#808080" stop-opacity="0.25"/>
<stop offset="0.54" stop-color="#808080" stop-opacity="0.12"/>
<stop offset="1" stop-color="#808080" stop-opacity="0.1"/>
</linearGradient>
<linearGradient id="paint14_linear" x1="630.694" y1="270.721" x2="631.151" y2="270.721" gradientUnits="userSpaceOnUse">
<stop stop-color="#808080" stop-opacity="0.25"/>
<stop offset="0.54" stop-color="#808080" stop-opacity="0.12"/>
<stop offset="1" stop-color="#808080" stop-opacity="0.1"/>
</linearGradient>
<linearGradient id="paint15_linear" x1="325.044" y1="270.721" x2="325.496" y2="270.721" gradientUnits="userSpaceOnUse">
<stop stop-color="#808080" stop-opacity="0.25"/>
<stop offset="0.54" stop-color="#808080" stop-opacity="0.12"/>
<stop offset="1" stop-color="#808080" stop-opacity="0.1"/>
</linearGradient>
<linearGradient id="paint16_linear" x1="325.694" y1="271.28" x2="326.151" y2="271.28" gradientUnits="userSpaceOnUse">
<stop stop-color="#808080" stop-opacity="0.25"/>
<stop offset="0.54" stop-color="#808080" stop-opacity="0.12"/>
<stop offset="1" stop-color="#808080" stop-opacity="0.1"/>
</linearGradient>
<linearGradient id="paint17_linear" x1="325.694" y1="270.721" x2="326.151" y2="270.721" gradientUnits="userSpaceOnUse">
<stop stop-color="#808080" stop-opacity="0.25"/>
<stop offset="0.54" stop-color="#808080" stop-opacity="0.12"/>
<stop offset="1" stop-color="#808080" stop-opacity="0.1"/>
</linearGradient>
<linearGradient id="paint18_linear" x1="287.098" y1="37.1231" x2="287.098" y2="25" gradientUnits="userSpaceOnUse">
<stop offset="0.9998" stop-color="#67B0EA"/>
<stop offset="0.9999" stop-color="#808080" stop-opacity="0.12"/>
<stop offset="1" stop-color="#808080" stop-opacity="0.1"/>
</linearGradient>
</defs>
</svg>
