<svg width="545" height="401" viewBox="0 0 545 401" fill="none" xmlns="http://www.w3.org/2000/svg">
<g filter="url(#filter0_i)">
<path d="M-6.10352e-05 148.484H229.083V155.195H-6.10352e-05V148.484Z" fill="#E6E6E6"/>
<path d="M152.111 92.3589H210.146V150.315H152.111V92.3589Z" fill="#E6E6E6"/>
<path d="M163.718 103.95H198.539V138.724H163.718V103.95Z" fill="#CCCCCC"/>
<path d="M65.3651 92.3589H80.0265V150.315H65.3651V92.3589Z" fill="#E6E6E6"/>
<path d="M65.3651 101.51H80.0265V108.22H65.3651V101.51Z" fill="#CCCCCC"/>
<path d="M65.3651 130.793H80.0265V137.504H65.3651V130.793Z" fill="#CCCCCC"/>
<path d="M87.968 92.3589H102.629V150.315H87.968V92.3589Z" fill="#E6E6E6"/>
<path d="M87.968 101.51H102.629V108.22H87.968V101.51Z" fill="#CCCCCC"/>
<path d="M87.968 130.793H102.629V137.504H87.968V130.793Z" fill="#CCCCCC"/>
<path d="M52.7327 92.1194L65.8719 98.6157L40.1225 150.555L26.9832 144.058L52.7327 92.1194Z" fill="#E6E6E6"/>
<path d="M48.6669 100.32L61.8062 106.816L58.8246 112.83L45.6854 106.334L48.6669 100.32Z" fill="#CCCCCC"/>
<path d="M35.6567 126.563L48.7959 133.059L45.8144 139.073L32.6752 132.577L35.6567 126.563Z" fill="#CCCCCC"/>
<path d="M188.46 115.623L181.076 128.393L173.693 141.164H188.46H203.226L195.843 128.393L188.46 115.623Z" fill="#E6E6E6"/>
<path d="M175.631 118.062L168.248 130.833L160.864 143.604H175.631H190.397L183.014 130.833L175.631 118.062Z" fill="#E6E6E6"/>
<path d="M170.438 114.321C168.076 114.321 166.162 112.409 166.162 110.051C166.162 107.692 168.076 105.78 170.438 105.78C172.8 105.78 174.714 107.692 174.714 110.051C174.714 112.409 172.8 114.321 170.438 114.321Z" fill="#E6E6E6"/>
<path d="M229.084 63.0762L0 63.0762L0 56.3655L229.084 56.3655V63.0762Z" fill="#E6E6E6"/>
<path d="M76.972 58.1953L18.9375 58.1953L18.9375 0.239491L76.972 0.239491V58.1953Z" fill="#E6E6E6"/>
<path d="M65.3652 46.6045L30.5444 46.6045L30.5444 11.831L65.3652 11.831V46.6045Z" fill="#CCCCCC"/>
<path d="M163.718 58.1953H149.057V0.239491H163.718V58.1953Z" fill="#E6E6E6"/>
<path d="M163.718 16.1011L149.057 16.1011V9.39041L163.718 9.39041V16.1011Z" fill="#CCCCCC"/>
<path d="M163.718 45.3843H149.057V38.6736H163.718V45.3843Z" fill="#CCCCCC"/>
<path d="M141.115 58.1953H126.454L126.454 0.239491H141.115V58.1953Z" fill="#E6E6E6"/>
<path d="M141.115 16.1011L126.454 16.1011V9.39041L141.115 9.39041V16.1011Z" fill="#CCCCCC"/>
<path d="M141.115 45.3843H126.454V38.6736H141.115V45.3843Z" fill="#CCCCCC"/>
<path d="M202.1 51.9388L188.961 58.4351L163.212 6.49621L176.351 -6.67846e-05L202.1 51.9388Z" fill="#E6E6E6"/>
<path d="M183.398 14.2147L170.259 20.7109L167.277 14.697L180.417 8.20068L183.398 14.2147Z" fill="#CCCCCC"/>
<path d="M196.408 40.4578L183.269 46.9541L180.288 40.9401L193.427 34.4438L196.408 40.4578Z" fill="#CCCCCC"/>
<path d="M40.6242 23.5029L48.0073 36.2736L55.3904 49.0444H40.6242H25.8575L33.2412 36.2736L40.6242 23.5029Z" fill="#E6E6E6"/>
<path d="M53.4531 25.9434L60.8362 38.7141L68.2192 51.4848H53.4531H38.6862L46.0693 38.7141L53.4531 25.9434Z" fill="#E6E6E6"/>
<path d="M58.6454 22.202C56.2837 22.202 54.3692 20.29 54.3692 17.9316C54.3692 15.5731 56.2837 13.6611 58.6454 13.6611C61.0071 13.6611 62.9216 15.5731 62.9216 17.9316C62.9216 20.29 61.0071 22.202 58.6454 22.202Z" fill="#E6E6E6"/>
<path d="M229.084 247.314L0 247.314L0 240.604L229.084 240.604V247.314Z" fill="#E6E6E6"/>
<path d="M76.972 242.434H18.9375L18.9375 184.478H76.972V242.434Z" fill="#E6E6E6"/>
<path d="M65.3652 230.843H30.5444L30.5444 196.069H65.3652V230.843Z" fill="#CCCCCC"/>
<path d="M163.718 242.434H149.057V184.478H163.718V242.434Z" fill="#E6E6E6"/>
<path d="M163.718 200.34H149.057V193.629H163.718V200.34Z" fill="#CCCCCC"/>
<path d="M163.718 229.623H149.057V222.912H163.718V229.623Z" fill="#CCCCCC"/>
<path d="M141.115 242.434H126.454L126.454 184.478H141.115V242.434Z" fill="#E6E6E6"/>
<path d="M141.115 200.34H126.454V193.629H141.115V200.34Z" fill="#CCCCCC"/>
<path d="M141.115 229.623H126.454V222.912H141.115V229.623Z" fill="#CCCCCC"/>
<path d="M202.1 236.178L188.961 242.674L163.212 190.735L176.351 184.239L202.1 236.178Z" fill="#E6E6E6"/>
<path d="M183.398 198.453L170.259 204.95L167.277 198.936L180.417 192.439L183.398 198.453Z" fill="#CCCCCC"/>
<path d="M196.408 224.696L183.269 231.192L180.288 225.178L193.427 218.682L196.408 224.696Z" fill="#CCCCCC"/>
<path d="M40.6242 207.741L48.0073 220.512L55.3904 233.283H40.6242H25.8575L33.2412 220.512L40.6242 207.741Z" fill="#E6E6E6"/>
<path d="M53.4531 210.182L60.8362 222.952L68.2192 235.724H53.4531H38.6862L46.0693 222.952L53.4531 210.182Z" fill="#E6E6E6"/>
<path d="M58.6454 206.44C56.2837 206.44 54.3692 204.528 54.3692 202.17C54.3692 199.811 56.2837 197.899 58.6454 197.899C61.0071 197.899 62.9216 199.811 62.9216 202.17C62.9216 204.528 61.0071 206.44 58.6454 206.44Z" fill="#E6E6E6"/>
<path d="M275.139 401C126.099 401 5.27863 392.43 5.27863 381.86C5.27863 371.289 126.099 362.719 275.139 362.719C424.179 362.719 545 371.289 545 381.86C545 392.43 424.179 401 275.139 401Z" fill="#E6E6E6"/>
<path d="M64.3107 392.578C108.314 384.757 156.433 386.057 206.907 392.578C183.902 373.183 164.046 353.788 187.052 334.392C142.177 343.637 135.891 342.702 85.971 334.392C97.5496 353.788 75.8894 373.183 64.3107 392.578Z" fill="#6C63FF"/>
<path opacity="0.2" d="M64.3107 392.578C108.314 384.757 156.433 386.057 206.907 392.578C183.902 373.183 164.046 353.788 187.052 334.392C142.177 343.637 135.891 342.702 85.971 334.392C97.5496 353.788 75.8894 373.183 64.3107 392.578Z" fill="black"/>
<path d="M75.0438 384.303C112.423 378.06 153.298 379.098 196.174 384.303C176.632 368.822 159.766 353.34 179.308 337.858C141.188 345.238 135.849 344.491 93.4435 337.858C103.279 353.34 84.8795 368.822 75.0438 384.303Z" fill="#6C63FF"/>
<path d="M69.8645 339.469C69.8645 350.177 78.5569 358.859 89.2809 358.859C100.005 358.859 108.697 350.177 108.697 339.469C108.697 328.762 100.005 320.08 89.2809 320.08C78.5569 320.08 69.8645 328.762 69.8645 339.469Z" fill="#2F2E41" stroke="#54536C"/>
<path d="M179.692 316.4L165.892 318.697L158.992 338.603L178.925 350.853L201.925 316.4H180.458H179.692Z" fill="#A0616A"/>
<path d="M140.592 347.025C122.809 347.025 108.393 332.628 108.393 314.869C108.393 297.11 122.809 282.713 140.592 282.713C158.376 282.713 172.792 297.11 172.792 314.869C172.792 332.628 158.376 347.025 140.592 347.025Z" fill="#A0616A"/>
<path d="M434.602 218.847L434.602 218.847L434.606 218.842C435.632 217.647 435.918 216.038 435.711 214.212C435.504 212.385 434.809 210.407 433.957 208.563C433.107 206.724 432.114 205.047 431.331 203.826C430.94 203.217 430.602 202.723 430.363 202.383C430.292 202.282 430.23 202.194 430.178 202.121C429.98 202.167 429.694 202.231 429.315 202.311C428.519 202.48 427.316 202.72 425.681 203.008C422.412 203.584 417.418 204.351 410.508 205.118C407.006 205.506 399.484 205.263 390.226 204.689C380.947 204.115 369.873 203.205 359.234 202.248C348.595 201.291 338.386 200.286 330.839 199.52C327.065 199.137 323.955 198.814 321.79 198.587C320.707 198.473 319.86 198.383 319.284 198.322L319.044 198.296C319.061 198.403 319.08 198.523 319.101 198.655C319.205 199.296 319.366 200.224 319.592 201.366C320.045 203.65 320.76 206.792 321.808 210.217C323.912 217.093 327.329 225.011 332.58 229.506C333.827 230.574 335.874 231.401 338.585 231.998C341.284 232.592 344.582 232.946 348.28 233.107C355.675 233.429 364.61 232.976 373.416 232.164C382.22 231.351 390.881 230.181 397.723 229.07C401.144 228.514 404.108 227.974 406.405 227.502C408.716 227.027 410.32 226.627 411.044 226.355C414.218 225.167 417.951 225.175 420.852 225.465C422.31 225.61 423.573 225.829 424.472 226.011C424.921 226.102 425.281 226.184 425.528 226.243C425.6 226.261 425.663 226.276 425.715 226.289C429.098 224.358 432.107 221.838 434.602 218.847Z" fill="#2F2E41" stroke="#54536C"/>
<path d="M373.654 283.479C374.088 283.231 374.088 283.231 374.088 283.231L374.088 283.232L374.09 283.234L374.095 283.244L374.117 283.282L374.203 283.431C374.278 283.562 374.388 283.754 374.531 284.001C374.815 284.494 375.226 285.203 375.73 286.065C376.739 287.789 378.121 290.126 379.617 292.575C381.113 295.025 382.72 297.584 384.178 299.755C385.645 301.939 386.937 303.694 387.807 304.562C388.388 305.143 389.113 306.252 389.922 307.697C390.741 309.158 391.674 311.01 392.667 313.118C394.656 317.335 396.9 322.597 398.987 327.843C401.073 333.089 403.006 338.327 404.37 342.497C405.051 344.581 405.593 346.405 405.941 347.834C406.115 348.548 406.243 349.171 406.314 349.683C406.384 350.179 406.409 350.623 406.343 350.951C405.969 352.82 405.973 354.108 406.063 354.912C406.1 355.246 406.152 355.498 406.198 355.673L427.586 353.464V347.106L427.577 347.08L427.478 346.78C427.39 346.517 427.262 346.13 427.099 345.635C426.772 344.644 426.305 343.22 425.742 341.485C424.615 338.014 423.105 333.298 421.571 328.318C420.037 323.34 418.478 318.094 417.253 313.564C416.033 309.048 415.135 305.203 414.938 303.047C414.849 302.067 414.339 300.288 413.477 297.873C412.622 295.478 411.44 292.509 410.04 289.175C407.24 282.508 403.578 274.404 399.937 266.559C396.297 258.714 392.68 251.132 389.974 245.511C388.621 242.7 387.495 240.38 386.707 238.763C386.314 237.954 386.005 237.321 385.794 236.89L385.554 236.399L385.492 236.274L385.477 236.242L385.473 236.234L385.472 236.232C385.471 236.231 385.471 236.231 385.92 236.011L385.471 236.231L385.47 236.229L385.47 236.229L385.47 236.228L385.469 236.226L385.464 236.216L385.443 236.173C385.423 236.135 385.393 236.076 385.353 236.001C385.273 235.849 385.152 235.628 384.991 235.353C384.67 234.802 384.189 234.037 383.555 233.188C382.284 231.483 380.417 229.462 378.01 228.122C375.617 226.789 372.688 226.126 369.241 227.124C365.778 228.127 361.736 230.824 357.173 236.33C348.005 247.392 343.048 256.727 340.384 263.283C339.052 266.561 338.293 269.145 337.868 270.904C337.655 271.784 337.525 272.457 337.45 272.908C337.412 273.133 337.387 273.303 337.372 273.415C337.364 273.471 337.359 273.512 337.356 273.539L337.353 273.569L337.352 273.575L337.352 273.576L337.352 273.576L373.654 283.479ZM373.654 283.479L374.088 283.231L373.154 281.594V283.479V289.568C368.568 321.565 353.505 341.163 339.601 352.765C332.643 358.572 325.972 362.378 321.043 364.733C318.578 365.91 316.55 366.723 315.141 367.242C314.482 367.484 313.958 367.662 313.588 367.782L313.588 319.584L373.654 283.479ZM406.301 355.99L406.301 355.99C406.302 355.992 406.303 355.994 406.303 355.993L406.302 355.992L406.301 355.99Z" fill="#2F2E41" stroke="#54536C"/>
<path d="M452.619 190.84L452.914 191.243L452.853 191.288L452.781 191.313L428.741 199.566C431.617 207.168 430.061 213.469 427.526 218.05C424.946 222.712 421.355 225.594 420.402 226.302L420.402 226.302C420.389 226.312 420.306 226.373 420.357 226.691C420.407 227.007 420.575 227.447 420.878 228C421.477 229.096 422.529 230.499 423.87 231.999C426.552 234.998 430.309 238.289 433.695 240.167C434.337 240.523 435.276 240.457 436.571 239.809C437.849 239.17 439.353 238.02 441.015 236.449C444.335 233.312 448.194 228.581 452.019 223.185C459.673 212.388 467.115 199.038 469.775 190.688C470.437 188.61 470.643 187.107 470.537 186.054C470.434 185.022 470.04 184.466 469.515 184.17C468.956 183.855 468.146 183.775 467.106 183.932C466.076 184.088 464.89 184.467 463.639 184.986C461.139 186.022 458.46 187.583 456.397 188.893C455.367 189.547 454.495 190.136 453.881 190.56C453.574 190.773 453.331 190.944 453.166 191.062C453.083 191.121 453.02 191.167 452.977 191.197L452.93 191.232L452.918 191.241L452.915 191.243L452.914 191.243C452.914 191.243 452.914 191.243 452.619 190.84Z" fill="#2F2E41" stroke="#54536C"/>
<path d="M444.925 352.163L444.849 352.657L444.774 352.646L444.705 352.612L425.368 343.181C422.508 349.448 417.782 352.296 413.503 353.528C409.135 354.785 405.231 354.361 404.228 354.214C404.227 354.213 404.226 354.213 404.225 354.213C404.224 354.213 404.224 354.213 404.224 354.213C404.223 354.214 404.216 354.215 404.201 354.223C404.17 354.242 404.112 354.288 404.037 354.391C403.885 354.6 403.724 354.956 403.575 355.466C403.278 356.476 403.066 357.944 402.969 359.647C402.777 363.052 403.054 367.273 403.955 370.423C404.116 370.985 404.689 371.496 405.849 371.882C406.991 372.261 408.578 372.472 410.519 372.526C414.393 372.632 419.552 372.106 425.094 371.16C436.184 369.266 448.676 365.712 455.288 362.297C456.932 361.448 457.95 360.674 458.51 359.989C459.058 359.321 459.145 358.776 459.015 358.313C458.876 357.812 458.453 357.291 457.739 356.765C457.033 356.246 456.099 355.765 455.039 355.327C452.92 354.453 450.376 353.784 448.349 353.334C447.339 353.109 446.462 352.94 445.838 352.827C445.527 352.77 445.278 352.728 445.108 352.699C445.023 352.685 444.958 352.675 444.914 352.668L444.865 352.66L444.852 352.658L444.849 352.657L444.849 352.657L444.925 352.163Z" fill="#2F2E41" stroke="#54536C"/>
<path d="M323.055 317.931C323.055 317.931 333.021 360.805 316.155 369.993C299.289 379.18 181.225 380.711 172.025 363.868C162.825 347.024 167.425 347.024 167.425 347.024L191.958 319.462L172.025 317.931C172.025 317.931 172.025 311.806 178.925 311.041C185.825 310.275 207.291 302.619 225.69 307.978C244.09 313.338 254.823 297.26 254.823 297.26L323.055 317.931Z" fill="#575A89"/>
<path d="M336.088 183.949L349.121 255.151L259.423 244.433L243.323 180.121L336.088 183.949Z" fill="#3F3D56"/>
<path d="M333.404 186.629L344.138 250.175L262.49 240.605L246.773 182.801L333.404 186.629Z" fill="white"/>
<path d="M346.055 255.917L349.121 255.151L350.654 258.213L326.121 326.353L323.814 325.472L323.055 320.994L346.055 255.917Z" fill="#B3B3B3"/>
<path d="M349.121 254.386L324.588 325.588L231.824 311.807L259.423 244.433L349.121 254.386Z" fill="#D0CDE1"/>
<path d="M336.854 252.089V255.917L268.623 248.261L269.389 244.433L336.854 252.089Z" fill="#3F3D56"/>
<path d="M335.321 259.745L324.588 289.604L254.823 281.182L267.089 252.854L335.321 259.745Z" fill="#3F3D56"/>
<path d="M247.923 301.853L250.223 295.728C250.223 295.728 267.856 265.104 277.056 271.229C286.256 277.354 257.89 307.213 257.89 307.213H248.69L247.923 301.853Z" fill="#A0616A"/>
<path d="M306.189 306.447L308.489 297.26C308.489 297.26 314.622 268.932 303.889 270.463C293.156 271.994 290.089 298.791 290.089 298.791L290.856 304.916L306.189 306.447Z" fill="#A0616A"/>
<path d="M287.789 302.619C287.789 302.619 307.722 299.557 308.489 304.15C309.255 308.744 313.088 377.649 293.922 379.946C274.756 382.243 179.691 392.196 189.658 368.462C199.624 344.728 214.957 347.79 214.957 347.79L280.123 354.681L287.789 302.619Z" fill="#575A89"/>
<path d="M227.607 311.424L247.923 297.26L261.34 307.596L244.473 325.97L227.607 311.424Z" fill="#575A89"/>
<path opacity="0.2" d="M282.039 325.205L278.973 354.298L226.074 351.236L272.073 350.47L282.039 325.205Z" fill="black"/>
<path d="M86.8653 320.712C86.8653 341.577 103.803 358.492 124.698 358.492C145.593 358.492 162.53 341.577 162.53 320.712C162.53 299.847 145.593 282.931 124.698 282.931C103.803 282.931 86.8653 299.847 86.8653 320.712Z" fill="#2F2E41" stroke="#54536C"/>
<path d="M321.905 208.832L274.372 207.18L269.773 189.692L318.838 191.171L321.905 208.832Z" fill="#6C63FF"/>
<path d="M334.171 218.785L262.106 216.488L261.34 213.425L333.404 215.959L334.171 218.785Z" fill="#E6E6E6"/>
<path d="M335.705 226.441L263.639 224.144L262.873 221.082L334.938 223.615L335.705 226.441Z" fill="#E6E6E6"/>
<path d="M336.471 232.566L264.407 230.269L263.639 227.207L335.705 229.74L336.471 232.566Z" fill="#E6E6E6"/>
</g>
<defs>
<filter id="filter0_i" x="0" y="0" width="545" height="405" filterUnits="userSpaceOnUse" color-interpolation-filters="sRGB">
<feFlood flood-opacity="0" result="BackgroundImageFix"/>
<feBlend mode="normal" in="SourceGraphic" in2="BackgroundImageFix" result="shape"/>
<feColorMatrix in="SourceAlpha" type="matrix" values="0 0 0 0 0 0 0 0 0 0 0 0 0 0 0 0 0 0 127 0" result="hardAlpha"/>
<feOffset dy="4"/>
<feGaussianBlur stdDeviation="2"/>
<feComposite in2="hardAlpha" operator="arithmetic" k2="-1" k3="1"/>
<feColorMatrix type="matrix" values="0 0 0 0 0 0 0 0 0 0 0 0 0 0 0 0 0 0 0.25 0"/>
<feBlend mode="normal" in2="shape" result="effect1_innerShadow"/>
</filter>
</defs>
</svg>
