<svg width="474" height="368" viewBox="0 0 474 368" fill="none" 
    xmlns="http://www.w3.org/2000/svg">
    <path d="M335.512 0L411.003 40.854C409.712 43.0744 408.88 45.5311 408.557 48.0785C408.234 50.626 408.426 53.2123 409.122 55.6843C409.817 58.1562 411.002 60.4635 412.607 62.4695C414.211 64.4754 416.203 66.1392 418.462 67.3622C420.722 68.5852 423.205 69.3425 425.763 69.5893C428.321 69.8361 430.903 69.5674 433.355 68.799C435.808 68.0306 438.081 66.7783 440.04 65.1161C441.999 63.4539 443.604 61.4158 444.76 59.1225L470.5 73.0525L403.825 196.039L268.836 122.986L335.512 0Z" fill="#F2F2F2"/>
    <path d="M428.757 66.0597C420.15 66.0597 413.172 59.0885 413.172 50.4891C413.172 41.8897 420.15 34.9185 428.757 34.9185C437.364 34.9185 444.341 41.8897 444.341 50.4891C444.341 59.0885 437.364 66.0597 428.757 66.0597Z" fill="#6C63FF"/>
    <path d="M145.951 329.243L64.3292 302.643C65.1987 300.226 65.5738 297.66 65.4324 295.096C65.291 292.532 64.636 290.023 63.5061 287.716C62.3762 285.41 60.7945 283.354 58.8546 281.669C56.9147 279.985 54.6561 278.707 52.2127 277.911C49.7693 277.114 47.1909 276.816 44.63 277.034C42.0692 277.251 39.5781 277.98 37.3044 279.177C35.0307 280.375 33.0206 282.015 31.3933 284.003C29.766 285.99 28.5545 288.284 27.8307 290.748L-3.05176e-05 281.678L43.4129 148.705L189.364 196.27L145.951 329.243Z" fill="#F2F2F2"/>
    <path d="M45.1285 311.93C36.5214 311.93 29.544 304.959 29.544 296.36C29.544 287.76 36.5214 280.789 45.1285 280.789C53.7356 280.789 60.713 287.76 60.713 296.36C60.713 304.959 53.7356 311.93 45.1285 311.93Z" fill="#6C63FF"/>
    <path d="M41.9127 72.9512H418.764V244.008H41.9127V72.9512Z" fill="#3F3D56"/>
    <path d="M48.1298 79.1626H412.547V234.451H48.1298V79.1626Z" fill="white"/>
    <path d="M85.1932 227.045H120.583V238.991H85.1932V227.045Z" fill="#3F3D56"/>
    <path d="M122.496 236.124H148.32V239.469H122.496V236.124Z" fill="#6C63FF"/>
    <path d="M382.896 137.934H243.729L222.153 148.436L187.775 165.169L165.298 123.122H101.692" stroke="#3F3D56" stroke-width="2" stroke-miterlimit="10"/>
    <path d="M328.173 137.934L317.855 162.302H292.509" stroke="#3F3D56" stroke-width="2" stroke-miterlimit="10"/>
    <path d="M289.493 137.934L254.25 118.821H229.382" stroke="#3F3D56" stroke-width="2" stroke-miterlimit="10"/>
    <path d="M328.377 142.234C326 142.234 324.073 140.309 324.073 137.934C324.073 135.559 326 133.633 328.377 133.633C330.754 133.633 332.681 135.559 332.681 137.934C332.681 140.309 330.754 142.234 328.377 142.234Z" fill="#6C63FF"/>
    <path d="M288.205 142.234C285.828 142.234 283.901 140.309 283.901 137.934C283.901 135.559 285.828 133.633 288.205 133.633C290.582 133.633 292.509 135.559 292.509 137.934C292.509 140.309 290.582 142.234 288.205 142.234Z" fill="#6C63FF"/>
    <path d="M222.208 148.446L219.339 190.971H194.47" stroke="#3F3D56" stroke-width="2" stroke-miterlimit="10"/>
    <path d="M174.313 139.985L201.644 118.821H175.819" stroke="#3F3D56" stroke-width="2" stroke-miterlimit="10"/>
    <path d="M129.167 123.122L102.649 144.145H77.7804" stroke="#3F3D56" stroke-width="2" stroke-miterlimit="10"/>
    <path d="M222.208 152.746C219.831 152.746 217.904 150.82 217.904 148.445C217.904 146.07 219.831 144.145 222.208 144.145C224.585 144.145 226.512 146.07 226.512 148.445C226.512 150.82 224.585 152.746 222.208 152.746Z" fill="#6C63FF"/>
    <path d="M129.43 127.422C127.053 127.422 125.126 125.497 125.126 123.122C125.126 120.747 127.053 118.821 129.43 118.821C131.807 118.821 133.734 120.747 133.734 123.122C133.734 125.497 131.807 127.422 129.43 127.422Z" fill="#6C63FF"/>
    <path d="M174.384 144.145C172.007 144.145 170.08 142.22 170.08 139.845C170.08 137.47 172.007 135.544 174.384 135.544C176.761 135.544 178.688 137.47 178.688 139.845C178.688 142.22 176.761 144.145 174.384 144.145Z" fill="#6C63FF"/>
    <path d="M317.377 166.125H292.509" stroke="#3F3D56" stroke-width="2" stroke-miterlimit="10"/>
    <path d="M401.308 368C361.161 368 328.616 362.01 328.616 354.621C328.616 347.232 361.161 341.242 401.308 341.242C441.455 341.242 474 347.232 474 354.621C474 362.01 441.455 368 401.308 368Z" fill="#F2F2F2"/>
    <path d="M351.385 235.875L364.354 242.412L363.514 244.082L350.546 237.545L351.385 235.875Z" fill="#6C63FF"/>
    <path d="M353.494 223.717L354.076 227.209C354.076 227.209 353.202 251.366 359.611 243.799C366.02 236.232 361.65 226.045 361.65 226.045L359.902 223.135L353.494 223.717Z" fill="#FBBEBE"/>
    <path d="M390.78 111.956C390.78 111.956 391.946 124.18 392.528 124.762C393.111 125.344 383.789 136.404 383.789 136.404L375.633 128.837C375.633 128.837 376.215 117.777 374.467 115.449C372.72 113.12 390.78 111.956 390.78 111.956Z" fill="#FBBEBE"/>
    <path opacity="0.1" d="M390.78 111.956C390.78 111.956 391.946 124.18 392.528 124.762C393.111 125.344 383.789 136.404 383.789 136.404L375.633 128.837C375.633 128.837 376.215 117.777 374.467 115.449C372.72 113.12 390.78 111.956 390.78 111.956Z" fill="black"/>
    <path d="M412.337 334.895V345.373L416.415 345.955L422.241 344.209L420.493 333.149L412.337 334.895Z" fill="#3F3D56"/>
    <path d="M417.58 340.134C417.58 340.134 419.328 335.478 422.241 336.06C425.154 336.642 425.737 340.134 425.737 340.134C425.737 340.134 428.067 348.866 431.563 351.776C435.058 354.686 438.554 362.254 431.563 363.418C424.571 364.582 418.745 361.671 418.745 361.089C418.745 360.507 416.998 357.015 414.085 356.433C411.172 355.851 408.841 355.268 408.841 352.94C408.841 350.612 410.589 348.283 410.589 348.283C410.589 348.283 411.172 337.242 412.337 338.688C413.143 339.831 413.735 341.109 414.085 342.463L417.58 340.134Z" fill="#2F2E41"/>
    <path d="M387.285 329.657L389.615 338.388L383.789 339.552L380.876 336.642L380.294 329.075L387.285 329.657Z" fill="#3F3D56"/>
    <path d="M387.867 337.224C387.867 337.224 385.537 335.477 384.372 335.477H382.624C382.624 335.477 382.624 331.403 379.711 331.403C376.798 331.403 377.381 334.313 377.381 334.313C377.381 334.313 370.972 344.209 369.224 345.955C367.476 347.701 358.155 352.94 365.728 355.268C373.302 357.597 378.546 357.597 382.041 353.522C382.041 353.522 385.537 351.776 387.867 351.776C390.198 351.776 393.111 350.612 393.111 348.865C393.111 347.119 391.363 343.627 391.363 343.627C391.363 343.627 390.198 333.149 389.615 334.313C389.033 335.477 387.867 337.224 387.867 337.224Z" fill="#2F2E41"/>
    <path d="M412.919 195.777V214.986C412.919 214.986 419.328 252.239 419.328 264.463C419.328 276.687 429.232 334.896 424.571 336.06C419.911 337.224 408.841 338.97 408.259 337.224C407.676 335.478 403.598 280.179 403.015 279.597C402.432 279.015 390.198 233.03 390.198 233.03L387.867 233.612L386.702 286C386.702 286 392.528 333.149 389.615 333.149C386.702 333.149 374.467 332.567 374.467 329.075C374.467 325.582 368.059 260.971 368.059 260.971C368.059 260.971 360.485 209.747 363.398 204.508C366.311 199.269 366.311 196.359 366.311 196.359L412.919 195.777Z" fill="#2F2E41"/>
    <path d="M381.167 120.979C374.732 120.979 369.515 115.767 369.515 109.337C369.515 102.907 374.732 97.6953 381.167 97.6953C387.603 97.6953 392.82 102.907 392.82 109.337C392.82 115.767 387.603 120.979 381.167 120.979Z" fill="#FBBEBE"/>
    <path d="M383.789 129.419C383.789 129.419 391.072 123.307 391.654 120.979C391.654 120.979 395.441 124.762 395.441 125.344C395.441 125.926 411.754 127.673 415.832 132.329C419.911 136.986 423.406 146.881 423.406 146.881L413.502 165.508C413.502 165.508 412.919 175.986 412.919 177.15C412.919 178.314 415.832 196.941 414.667 197.523C413.502 198.105 401.85 203.926 391.946 202.762C382.041 201.598 372.137 199.851 369.224 199.851C366.311 199.851 363.981 201.015 363.981 199.851C363.981 198.687 365.728 196.359 365.728 195.195C365.728 194.03 366.311 191.12 366.311 189.374C366.311 187.627 367.476 184.717 367.476 182.389C367.476 180.06 354.659 148.628 354.659 148.628C354.659 148.628 355.241 138.732 364.563 134.075C373.885 129.419 375.05 127.673 375.05 127.673C375.05 127.673 375.232 124.18 375.723 124.18C376.215 124.18 377.963 129.419 382.624 130.001L383.789 129.419Z" fill="#D0CDE1"/>
    <path d="M415.25 206.836L411.172 213.239L400.685 210.911L408.259 202.18L415.25 206.836Z" fill="#FBBEBE"/>
    <path d="M358.154 143.971L354.659 148.628C354.659 148.628 347.668 182.389 348.833 194.613C349.998 206.837 351.163 216.15 351.163 216.15C351.163 216.15 348.833 224.881 350.581 224.881C352.328 224.881 362.815 225.463 362.815 223.717C362.815 221.971 361.65 210.911 361.65 210.911L364.563 185.299L370.972 176.568L358.154 143.971Z" fill="#D0CDE1"/>
    <path d="M389.082 103.685C388.367 103.383 387.542 103.628 386.777 103.499C385.879 103.347 385.075 102.683 384.168 102.766C383.738 102.846 383.32 102.982 382.926 103.169C382.728 103.262 382.513 103.314 382.294 103.322C382.075 103.33 381.857 103.294 381.653 103.215C381.556 103.17 381.47 103.104 381.401 103.021C381.333 102.939 381.283 102.842 381.257 102.738C381.23 102.634 381.227 102.526 381.248 102.42C381.269 102.315 381.313 102.216 381.376 102.13C380.609 102.062 379.884 101.75 379.307 101.24C379.192 101.121 379.059 101.021 378.912 100.944C378.741 100.899 378.563 100.89 378.388 100.917C378.213 100.944 378.046 101.007 377.897 101.102L376.564 101.716C376.263 101.822 375.999 102.01 375.802 102.26C375.643 102.507 375.612 102.839 375.388 103.028C375.101 103.27 374.673 103.152 374.299 103.175C373.959 103.208 373.644 103.365 373.412 103.615C373.18 103.865 373.048 104.191 373.041 104.532C373.046 104.923 373.189 105.403 372.879 105.642C372.7 105.781 372.445 105.758 372.235 105.844C371.69 106.065 371.688 106.823 371.768 107.405C371.849 107.987 371.809 108.755 371.249 108.934C370.854 109.06 370.451 108.791 370.042 108.731C369.423 108.641 368.852 109.027 368.301 109.322C367.751 109.618 367.02 109.817 366.543 109.414C366.099 109.039 366.128 108.353 366.25 107.785C366.425 106.971 366.713 106.185 367.105 105.45C367.25 105.234 367.335 104.983 367.352 104.723C367.319 104.54 367.247 104.367 367.142 104.213C367.037 104.06 366.9 103.931 366.741 103.834C366.067 103.302 365.291 102.766 365.073 101.935C364.913 101.326 365.093 100.683 365.079 100.053C365.062 99.286 364.757 98.5227 364.9 97.7692C365.16 96.4036 366.681 95.7464 367.663 94.7617C369.012 93.4086 369.45 91.2445 371.043 90.1877C372.317 89.3422 373.983 89.4431 375.434 88.9594C377.028 88.428 378.31 87.2072 379.883 86.615C380.741 86.2988 381.658 86.1763 382.569 86.2561C383.48 86.336 384.362 86.6162 385.152 87.0768C385.621 87.4243 386.145 87.6915 386.701 87.8676C387.17 87.9219 387.644 87.9164 388.112 87.8513C389.041 87.8034 389.967 87.9943 390.801 88.4057C391.12 88.5332 391.386 88.7662 391.554 89.0658C391.836 89.6904 391.427 90.6667 392.044 90.9654C392.331 91.1046 392.671 90.9712 392.991 90.9782C393.612 90.9918 394.09 91.5321 394.386 92.0783C394.616 92.6557 394.947 93.1879 395.363 93.6502C396.123 94.3148 397.503 94.4246 397.701 95.4137C397.705 95.8325 397.681 96.2511 397.63 96.6667C397.687 97.5433 398.626 98.2094 398.577 99.0865C398.521 100.098 397.234 100.592 396.89 101.546C396.629 102.271 396.973 103.056 397.21 103.79C397.447 104.525 397.519 105.466 396.906 105.936C396.666 106.12 396.358 106.196 396.113 106.373C395.479 106.834 395.487 107.763 395.558 108.543C395.598 108.705 395.598 108.874 395.558 109.036C395.518 109.198 395.439 109.347 395.327 109.472C395.223 109.535 395.106 109.575 394.984 109.59C394.863 109.604 394.74 109.593 394.623 109.556C394.243 109.464 393.885 109.295 393.572 109.06C393.26 108.825 392.998 108.528 392.804 108.188C392.6 107.851 392.559 107.554 392.188 107.375C391.937 107.254 391.631 107.362 391.375 107.205C390.157 106.456 390.577 104.318 389.082 103.685Z" fill="#2F2E41"/>
    <path d="M421.658 145.135L423.406 146.882C423.406 146.882 433.893 178.314 430.398 185.299C426.902 192.284 419.911 209.747 417.58 209.165C415.25 208.583 407.093 203.344 407.093 202.762C407.093 202.18 416.998 185.881 416.998 185.881C416.998 185.881 418.163 182.389 417.58 181.807C416.998 181.225 416.998 181.807 417.58 180.643C418.163 179.478 418.163 180.643 416.998 179.478C415.832 178.314 415.832 178.314 415.832 177.732C415.832 177.15 412.337 162.598 412.337 162.598L421.658 145.135Z" fill="#D0CDE1"/>
    <path d="M412.628 213.53L399.811 209.456L398.063 213.53L412.045 216.441L412.628 213.53Z" fill="#2F2E41"/>
    <path opacity="0.1" d="M412.628 213.53L399.811 209.456L398.063 213.53L412.045 216.441L412.628 213.53Z" fill="black"/>
    <path opacity="0.1" d="M395.15 125.635L385.246 133.784L384.08 132.038L395.15 125.635Z" fill="black"/>
    <path opacity="0.1" d="M375.342 127.964L382.332 132.038L381.75 133.785L375.342 127.964Z" fill="black"/>
</svg>
